<?xml version="1.0" encoding="utf-8"?>
<!-- Generator: Adobe Illustrator 19.0.0, SVG Export Plug-In . SVG Version: 6.00 Build 0)  -->
<svg version="1.1" id="Layer_1" xmlns="http://www.w3.org/2000/svg" xmlns:xlink="http://www.w3.org/1999/xlink" x="0px" y="0px"
	 viewBox="0 0 219.4 167.8" style="enable-background:new 0 0 219.4 167.8;" xml:space="preserve">
<style type="text/css">
	.st0{fill:#FFFFFF;}
</style>
<path class="st0" d="M219.4,132.2c-0.8-0.1-1.4,0.2-1.9,0.7c-0.6,0.7-1.2,1.3-1.7,2c-0.3,0.4-0.5,0.9-0.8,1.4
	c-2.9,6.2-5.8,12.4-8.7,18.5c-1.6,3.5-3.4,6.9-5,10.3c-0.3,0.7-0.7,1.4-1,2.1c-1-0.5-2-1-3-1.5c0.3-0.5,0.5-1.1,0.8-1.6
	c1.6-3.1,3.2-6.3,4.9-9.4c0.1-0.2,0.1-0.3,0-0.4c-2.6-5.6-5.1-11.3-7.7-16.9c-0.4-0.8-0.8-1.6-1.6-2.1c-2-1.4-4.7-0.6-5.7,1.6
	c-0.4,0.8-0.5,1.6-0.5,2.5c0,2.4-0.7,4.5-2.3,6.3c-1.4,1.7-3.3,2.8-5.4,3.3c-1.2,0.3-2.4,0.4-3.6,0.4c-1.3,0-2.5,0-3.8,0
	c-0.7,0-1.4,0.1-2,0.5c-1.4,0.8-1.5,2.5-0.2,3.5c0.6,0.5,1.2,0.7,2,0.7c2.4,0.1,4.9,0.2,7.3,0.3c1.1,0,2.2,0,3.3,0.1
	c1.7,0.1,3.3,0.3,4.8,1.1c1.9,1.1,2.8,2.9,2.6,5c-0.1,1.7-1.1,3-2.4,4c-1.5,1.1-3.1,1.7-4.9,2.2c-1.5,0.4-3,0.6-4.5,0.7
	c-0.1,0-0.2,0-0.3,0.1h-3.2c-0.4,0-0.8-0.1-1.2-0.1c-1.9-0.1-3.8-0.4-5.6-0.9c-1.5-0.4-2.9-0.9-4.2-1.7c-0.8-0.5-1.4-1.2-1.7-2.2
	c-0.4-1.3,0-2.3,0.9-3.2c1-1,2.1-1.6,3.4-2.1c0.1,0,0.2-0.1,0.3-0.1c-0.1-0.1-0.2-0.1-0.4-0.2c-1.1-0.6-2.1-1.4-2.7-2.5
	c-0.7-1.1-0.8-2.2-0.2-3.4c0.3-0.6,0.9-1.1,1.4-1.5c1.3-0.9,2.7-1.3,4.2-1.7c0.4-0.1,0.8-0.2,1.2-0.2c-0.5-0.2-1.1-0.4-1.5-0.7
	c-1.8-0.9-3.3-2.2-4.3-4c-1.6-3-1.3-6,0.6-8.8c1.3-1.9,3.1-3.1,5.3-3.8c2-0.7,4.1-1,6.2-0.8c2.1,0.1,4.1,0.6,6,1.7
	c1.5,0.8,2.7,1.9,3.6,3.3c0,0,0.1,0.1,0,0.1c0.5-0.8,0.9-1.6,1.4-2.3c2.2-2.9,5.9-3.8,9.3-2.4c2.3,1,4,2.7,5,5.1
	c1.6,3.8,3.1,7.6,4.6,11.3c0,0,0,0.1,0.1,0.1c0,0.1,0.1,0.3,0.2,0.2c0.1,0,0.2-0.1,0.3-0.2c0.7-1.5,1.3-2.9,2-4.4
	c1-2.2,2.1-4.5,3.1-6.7c0.1-0.3,0.1-0.5,0.1-0.8c-0.2-0.8-0.6-1.5-1.1-2.2c-0.3-0.3-0.6-0.5-1-0.4c-0.3,0-0.7,0-1,0
	c0-0.6,0-1.2,0-1.7c0,0,0.1-0.1,0.1-0.1c0.1,0,0.2,0,0.2,0c3.2,0,6.3,0,9.5,0c0.1,0,0.2,0,0.3,0V132.2z M180.9,139.8
	c-0.1-0.9-0.1-1.8-0.2-2.6c-0.2-1.3-0.7-2.5-1.7-3.5c-1.2-1.2-2.7-1.6-4.4-1.4c-1.4,0.2-2.4,0.9-3.1,2.1c-0.5,0.9-0.7,1.9-0.8,2.8
	c-0.1,1.4-0.1,2.7,0,4.1c0.1,1.4,0.6,2.7,1.5,3.9c1.7,2,4.2,2.2,6,1.3c1.2-0.6,1.8-1.6,2.2-2.8C180.8,142.4,180.8,141.1,180.9,139.8
	 M176.8,165.5c0.7,0,1.3,0,2,0c1.4-0.1,2.8-0.3,4.1-0.6c0.8-0.2,1.6-0.6,2.3-1.1c0.8-0.7,0.9-1.8,0.3-2.5c-0.3-0.3-0.7-0.6-1.1-0.7
	c-0.7-0.1-1.3-0.1-2-0.2c-1.9,0-3.9-0.1-5.8-0.3c-2.4-0.3-4.8-0.7-7.2-1.5c-0.1,0-0.2,0-0.3,0c-0.6,0.3-1.2,0.6-1.7,1.1
	c-0.8,0.9-0.9,1.8-0.2,2.8c0.2,0.2,0.3,0.4,0.5,0.6c0.8,0.8,1.8,1.2,2.9,1.6C172.6,165.4,174.6,165.5,176.8,165.5"/>
<path class="st0" d="M0,116.9c0.1,0,0.2,0,0.3,0c5.2,0,10.4,0,15.6,0c2,0,4.1,0.2,6.1,0.8c1.7,0.5,3.3,1.2,4.6,2.4
	c1.3,1.2,2.2,2.7,2.5,4.4c0.3,1.6,0.3,3.2-0.2,4.7c-0.6,2-2,3.4-3.8,4.4c-1,0.5-2.1,0.9-3.1,1.2c-0.1,0-0.2,0-0.3,0.1
	c0.7,0.1,1.4,0.3,2,0.4c1.7,0.4,3.4,1,4.8,2.1c1.9,1.4,2.9,3.3,3.3,5.6c0.3,1.9,0.2,3.9-0.6,5.7c-0.9,2.3-2.6,3.9-4.7,5.1
	c-1.7,0.9-3.6,1.5-5.6,1.8c-1.9,0.3-3.9,0.4-5.8,0.4c-4.9,0-9.9,0-14.8,0c-0.1,0-0.2,0-0.3,0v-2c0.2,0,0.4,0,0.6,0
	c0.3,0,0.5-0.1,0.8-0.2c0.9-0.7,1.7-1.5,2.2-2.5c0.1-0.2,0.2-0.5,0.2-0.8c0-9.4,0-18.8,0-28.3c0-0.3-0.1-0.6-0.3-0.9
	c-0.5-0.6-1-1.2-1.5-1.8c-0.5-0.6-1.2-0.9-2-0.8V116.9z M10.9,136.9v0.3c0,4.7,0,9.5,0,14.2c0,0.3,0.1,0.6,0.3,0.8
	c0.3,0.3,0.6,0.7,1,0.9c0.2,0.2,0.5,0.2,0.8,0.2c1,0,2.1,0,3.1,0c1.5,0,3-0.4,4.3-1.2c2-1.2,3.2-2.9,3.5-5.2
	c0.1-1.1,0.1-2.2,0.1-3.3c0-1.4-0.4-2.7-1.3-3.8c-1.6-2-3.7-2.8-6.1-2.9c-1.7-0.1-3.5,0-5.2,0H10.9z M10.8,134.4h0.3
	c1.3,0,2.6,0,3.8,0c1,0,1.9-0.2,2.8-0.5c2-0.7,3.4-2.1,3.9-4.3c0.3-1.5,0.3-3,0.1-4.4c-0.4-3.3-3.4-5.5-6.1-5.7
	c-0.9-0.1-1.8,0-2.7-0.1c-0.5,0-0.9,0.1-1.3,0.5c-0.6,0.5-0.9,1.1-0.9,1.9c0,4.1,0,8.2,0,12.3V134.4z"/>
<path class="st0" d="M69.9,114.6c0,0.1,0,0.2,0,0.3c0,12,0,24,0,36.1c0,0.4,0.1,0.7,0.3,1c0.5,0.8,1.1,1.4,1.9,1.9
	c0.3,0.2,0.6,0.3,0.9,0.3c0.3,0,0.6,0,0.9,0v1.9H59v-1.9c0.3,0,0.6,0,0.9,0c0.3,0,0.5-0.1,0.8-0.2c0.9-0.5,1.6-1.2,2.2-2.1
	c0.2-0.3,0.3-0.6,0.3-1c0-9.5,0-19,0-28.5c0-0.5-0.2-0.9-0.5-1.3c-0.5-0.6-1-1.1-1.7-1.5c-0.3-0.2-0.6-0.3-1-0.3c-0.2,0-0.4,0-0.6,0
	c0-0.5,0-1.1,0-1.6c0-0.1,0.2-0.2,0.3-0.2c1.3-0.3,2.6-0.6,3.9-1c2-0.6,4-1.3,6-2c0.1,0,0.2-0.1,0.2-0.1H69.9z"/>
<path class="st0" d="M130.6,114.6c0,0.1,0,0.3,0,0.4c0,12,0,23.9,0,35.9c0,0.4,0.1,0.7,0.3,1c0.5,0.8,1.2,1.4,1.9,2
	c0.3,0.2,0.5,0.3,0.8,0.3c0.3,0,0.6,0,0.9,0v1.9c-0.1,0-0.2,0-0.3,0c-4.8,0-9.5,0-14.3,0c-0.2,0-0.3-0.1-0.3-0.3c0-0.5,0-1.1,0-1.7
	c0.3,0,0.6,0,0.9,0c0.3,0,0.6-0.1,0.8-0.2c0.9-0.5,1.6-1.2,2.1-2.1c0.1-0.2,0.2-0.5,0.2-0.8c0-9.6,0-19.1,0-28.7
	c0-0.4-0.1-0.8-0.4-1.1c-0.5-0.6-1-1.1-1.6-1.5c-0.4-0.3-0.8-0.4-1.2-0.4c-0.1,0-0.3,0-0.5,0v-1.7c1-0.2,2-0.5,3-0.7
	c2.4-0.6,4.8-1.4,7.2-2.3c0.1,0,0.2-0.1,0.2-0.1H130.6z"/>
<path class="st0" d="M93.2,143.3c0-6.7,4.7-11.9,10.6-13.3c5.4-1.3,11.1,0.9,14.3,5.5c1.1,1.7,1.8,3.5,2.1,5.5
	c0.4,2.7,0.1,5.2-0.9,7.7c-1.8,4-4.9,6.6-9.1,7.6c-4.8,1.1-9.1,0-12.8-3.3c-2.2-2-3.4-4.5-3.9-7.4C93.3,144.9,93.3,144.1,93.2,143.3
	 M100.2,143.3c0,0.8,0.1,2,0.2,3.1c0.1,1.4,0.4,2.8,1.2,4c1.3,2.3,3.3,3.5,6,3.3c2.2-0.2,3.7-1.2,4.8-3.1c0.8-1.5,1-3.1,1.1-4.7
	c0.1-1.4,0.1-2.7,0.1-4.1c0-1.4-0.1-2.7-0.5-4.1c-0.4-1.4-1-2.7-2.1-3.7c-1.3-1.3-2.9-1.8-4.8-1.6c-1.5,0.1-2.8,0.8-3.8,1.9
	c-0.9,1.1-1.4,2.3-1.7,3.7C100.3,139.6,100.2,141.2,100.2,143.3"/>
<path class="st0" d="M161.4,143.2c-0.1,3.1-0.9,5.9-2.8,8.4c-2.1,2.7-4.8,4.3-8.1,5c-4.3,0.8-8.1-0.2-11.5-2.9
	c-2.5-2-3.9-4.6-4.5-7.7c-0.5-2.7-0.3-5.3,0.8-7.8c1.6-3.9,4.5-6.5,8.4-7.8c5-1.6,9.5-0.6,13.4,2.9c2.3,2,3.6,4.7,4,7.7
	C161.3,141.7,161.3,142.5,161.4,143.2 M154.5,142.8c0-0.6-0.1-1.7-0.2-2.8c-0.1-1.2-0.3-2.3-0.8-3.4c-1-2.4-2.7-4-5.5-4.2
	c-1.5-0.1-2.8,0.2-4,1.1c-1.2,0.9-1.9,2.2-2.3,3.6c-0.5,1.6-0.5,3.3-0.6,5c0,1.2,0,2.3,0.1,3.5c0.1,1.3,0.3,2.5,0.7,3.7
	c1,2.5,3.2,4.6,6.6,4.3c1.1-0.1,2.2-0.5,3.1-1.2c1.4-1.1,2.1-2.7,2.5-4.4C154.5,146.5,154.5,144.9,154.5,142.8"/>
<path class="st0" d="M59.4,147c-0.1,0.4-0.3,0.7-0.4,1c-1.1,2.5-2.6,4.6-4.8,6.2c-1.9,1.5-4.1,2.3-6.5,2.4c-2.7,0.1-5.2-0.3-7.5-1.7
	c-2.5-1.5-4.2-3.7-5.2-6.5c-0.6-1.5-0.8-3.1-0.9-4.8c-0.1-2.5,0.3-4.9,1.4-7.1c1.9-3.7,4.9-5.9,8.9-6.7c2.1-0.4,4.3-0.4,6.4,0.3
	c3.1,1.1,5.2,3.3,6.3,6.3c0.3,0.9,0.5,1.9,0.6,2.9l-0.5,2.5c0,0-0.4,0.1-0.6,0.1c-1.5,0.1-3.1,0.2-4.6,0.4c-1.7,0.1-3.4,0.3-5.1,0.4
	c-1.5,0.1-2.9,0.2-4.4,0.3c-0.6,0-1.2,0.1-1.8,0.1c0,1.3,0.3,2.5,0.8,3.6c1,2.2,2.6,3.7,4.9,4.4c2.1,0.6,4.2,0.3,6.2-0.6
	c1.7-0.8,3-2,4.1-3.5c0.1-0.2,0.3-0.2,0.5-0.2C58.1,147,58.7,147,59.4,147 M40.8,140.9c0.8-0.1,1.5-0.1,2.2-0.2
	c2.4-0.2,4.9-0.5,7.3-0.7c0.2,0,0.5,0,0.7-0.1c0.1-0.1,0.1-0.4,0.1-0.7c0,0,0,0,0,0c0.1-1.5,0-3-0.7-4.4c-0.5-1.1-1.2-1.9-2.3-2.3
	c-1.8-0.6-4.3-0.2-5.7,1.8c-0.8,1.1-1.2,2.3-1.5,3.5C40.9,138.9,40.8,139.8,40.8,140.9"/>
<path class="st0" d="M90.7,133.4h-3.2h-3.2v0.3c0,5.4,0,10.7,0,16.1c0,0.2,0,0.4,0.1,0.5c0.4,1,1.1,1.6,2.1,2c0.3,0.1,0.7,0,1-0.1
	c0.7-0.3,1.4-0.8,2-1.3c0.5-0.4,1-0.9,1.5-1.3c0.5,0.5,1,1.1,1.5,1.7c-0.4,0.4-0.7,0.8-1.1,1.2c-1.3,1.3-2.6,2.5-4.3,3.4
	c-0.9,0.5-1.9,0.9-2.9,0.9c-2.9,0.2-5.6-1.9-6.2-4.7c-0.1-0.5-0.2-1-0.2-1.5c0-5,0-10.1,0-15.1c0-0.3,0-0.6-0.2-0.8
	c-0.3-0.4-0.7-0.8-1-1.1c-0.2-0.2-0.5-0.3-0.8-0.3c-0.8,0-1.6,0-2.3,0H73v-3c0.2,0,0.5,0,0.7,0c0.9,0.1,1.6-0.2,2.3-0.8
	c1.3-1.1,2.4-2.4,3.4-3.7c1-1.3,2-2.5,2.7-4c0.2-0.3,0.3-0.7,0.5-1.1H84v9.5h0.3c2,0,4,0,6,0c0.3,0,0.3,0.1,0.3,0.3
	c0,0.8,0,1.6,0,2.4V133.4z"/>
<path class="st0" d="M17,93.9c4.2-9.6,8.3-19.3,12.7-29.4c-5-2.5-6.9-7-7-12.6c-0.1-7.7,2.1-14.6,7-20.6c1.7-2.1,3.7-4,5.7-5.8
	c1.6-1.5,3.4-1.9,5.1,0c1.7,2,0.9,3.4-0.9,4.9c-7.4,6.2-11.1,14-10.3,23.7c0.1,1.8,1.1,3.4,1.7,5.2l1.6-0.1c3.6-7,7.1-14.1,10.8-21
	c5.4-10,11-19.8,16.5-29.7c0.4-0.8,1.3-1.9,1.8-1.8c2.8,0.1,3.1-2.1,4.3-3.7C67,1.6,68.5,0.9,69.8,0c0.7,1.9,2.3,4,1.8,5.6
	c-2,6.8-4.8,13.4-6.9,20.2c-2.2,7-3.8,14.2-5.9,22.2c6.4-3.5,10.6-8.2,15-12.7c1.2-1.3,3.2-1.8,4.9-2.7c0.6,2,1.9,3.9,1.8,5.9
	c-0.1,1.9-1.5,3.8-1.9,6.2c1.1-0.9,2.3-1.7,3.4-2.6c3.7-3.3,7.2-6.8,11.1-9.9c1.1-0.9,2.9-1.1,4.4-1.5c0.1,1.9,0.8,3.8,0.3,5.5
	c-0.7,2.6-2.2,5-3.4,7.5c0.4,0.3,0.7,0.6,1.1,0.8c4.5-3.4,9.5-6.3,13.4-10.3c3.7-3.7,8.4-4.9,12.7-7.1c1.3-0.7,3.6,0.6,6.3,1.1
	c1.1-6.7,2.3-13.6,3.4-20.6c0.3-1.7-0.4-4.4,2.2-4c1.4,0.2,3.3,2.9,3.3,4.4c-0.1,4.8-0.8,9.6-1.7,14.3c-1.3,6.8-3.1,13.5-4,20.9
	c2.7-2.7,5.5-5.3,8-8.2c0.4-0.5-0.2-2.1-0.6-3c-1.8-3.5-1.4-6.1,1.7-8.1c2.9-1.9,5.8-0.6,7.5,1.7c2.3,3.2,4,2.3,6.4,0.4
	c1-0.8,2.6-0.9,3.9-1.4c0.1,1.7,0.6,3.5,0.1,4.9c-1.5,4.1-3.4,8.1-5.2,12.3c5.3,0,8.3-2.1,9.8-6.5c2.6-7.8,7.5-11.8,14.6-11.8
	c3.1,0,6,0.8,6.9,4c0.8,3.1-1.8,4.3-4.2,5.6c-3.9,2.2-8.2,4.2-11.3,7.3c-1.6,1.6-1.5,5.4-1.3,8.2c0.1,0.8,3.4,1.9,5.2,1.8
	c7.9-0.5,12-6.3,15.9-12.2c2.7,3.1,2.6,5.8-0.1,8.4c-1.8,1.8-3.3,4-5,5.9c-3.6,4-12.4,6.2-17.4,2.3c-2.6-2-3.8-5.8-5.9-9.2
	c-2.7,1.4-6.2,3.3-9.9,4.8c-1.3,0.5-3.9,0.6-4.5-0.1c-1-1.3-1.4-3.7-0.9-5.3c1.2-3.9,3.1-7.6,4.7-11.4c-0.3-0.4-0.6-0.7-1-1.1
	c-1.8,1.2-4,2.2-5.5,3.7c-5.2,5.4-10,11.1-15.2,16.5c-1.1,1.1-3.7,2.3-4.5,1.7c-1.3-0.8-1.6-3.1-2.3-4.7c-0.1-0.3-0.2-0.7-0.3-1.3
	c-2.5,2.3-4.7,4.7-7.3,6.4c-1.8,1.1-4.7,2.3-6.2,1.5c-1.5-0.7-2.3-3.7-2.7-5.8c-0.4-2.5,0-5.1,0-7.8c-5.9,3.2-10.3,7.5-14.1,12.8
	c-0.8,1.1-2.9,1.2-4.4,1.8c-0.5-1.6-1.8-3.3-1.5-4.7c0.7-3.4,2.2-6.6,2.9-10.4c-2.5,2.3-5.3,4.5-7.6,7.1c-2.6,2.9-4.7,6.2-7.4,9
	c-0.9,1-3.6,1.9-4.1,1.4c-1.1-1-2-3.1-1.7-4.5c0.6-3,2.1-5.7,3.4-9.2c-2.6,1.7-4.5,3-6.5,4.2c-4.3,2.9-7.4,6.4-8.9,11.7
	c-1.9,6.6-5,12.8-7.8,19.1c-0.7,1.6-2.3,2.8-3.5,4.1c-0.4-0.2-0.9-0.5-1.3-0.7c2.2-7.7,4.4-15.4,6.7-23.3c-4.3,1.3-8.2,2.4-12,3.8
	c-0.9,0.3-1.7,1.6-2.3,2.6c-5.2,9.6-10.3,19.1-15.4,28.7C16.1,96.7,17.2,94.9,17,93.9 M40.1,57.6c7.3-1.4,12.1-4,12.6-11.1
	c0.1-0.8,0.5-1.5,0.7-2.2c1.7-6.5,3.3-12.9,5-19.4c-0.4-0.2-0.8-0.3-1.2-0.5C51.7,35.3,46.1,46.1,40.1,57.6 M109.6,48.8
	c0.3,0.2,0.7,0.4,1,0.6c5.3-3.8,10.4-7.8,13.9-13.5c0.5-0.8,0.2-2.7-0.5-3.4c-0.6-0.7-2.4-0.8-3.4-0.5c-5.5,1.7-6.4,7.3-9.1,11.3
	C110.5,44.8,110.2,46.9,109.6,48.8 M170,35.4c3-1.8,6.1-3.6,9.7-5.7C174.6,28.5,172.2,29.8,170,35.4"/>
<path class="st0" d="M196.1,6.7c-7.7,5.3-16.7,9-20,8.3c5.1-4.6,10.2-9.3,15.4-13.8c1.8-1.6,3.1-0.6,3.8,1.4
	c0.4,1.1,0.5,2.2,0.8,3.3L196.1,6.7z"/>
<path class="st0" d="M124.2,75.4c-0.5,0.3-1,0.6-1.4,1c-3.2,2.5-6.6,4.7-9.6,7.6c-2.5,2.4-4.6,5.8-6.9,8.7c-0.2,0.2-0.3,0.5-0.4,0.6
	c-3.1,2.1-5.2,6.2-7.5,10c-0.6,1.1-1.3,1.8-2.4-0.1c-1.2-2.1-0.7-3.3,0-4.1c3.4-4.5,6.6-9.4,10.3-13.2c4.2-4.2,8.7-7.5,13.3-10.8
	c1.2-0.9,2.9-0.7,4.3-1C123.9,74.6,124,75,124.2,75.4"/>
<path class="st0" d="M122.6,101.6c-0.4-0.4-0.7-0.9-1.1-1.3c-2.8-3-5.2-6.1-8.4-8.9c-2.6-2.3-6.2-4.1-9.3-6.1
	c-0.2-0.1-0.5-0.2-0.6-0.4c-2.3-2.9-6.6-4.7-10.6-6.6c-1.2-0.5-1.9-1.1-0.1-2.4c2-1.4,3.2-0.9,4.1-0.4c4.7,3,9.9,5.8,14,9.1
	c4.6,3.8,8.2,8.1,11.9,12.3c1,1.1,0.9,2.8,1.3,4.2L122.6,101.6z"/>
</svg>
