<?xml version="1.0" encoding="utf-8"?>
<!-- Generator: Adobe Illustrator 19.0.0, SVG Export Plug-In . SVG Version: 6.00 Build 0)  -->
<svg version="1.1" id="Mr_A_hat_xA0_Image_1_" xmlns="http://www.w3.org/2000/svg" xmlns:xlink="http://www.w3.org/1999/xlink"
	 x="0px" y="0px" viewBox="0 0 114.2 136.1" style="enable-background:new 0 0 114.2 136.1;" xml:space="preserve">
<style type="text/css">
	.st0{fill:#FFFFFF;}
</style>
<g>
	<path class="st0" d="M26.1,2.4c-0.6-0.4-0.7-0.6-0.5-1.3c0.1-0.2,0.1-0.4,0.2-0.6C25.9,0.1,26.1,0,26.5,0c0.2,0,0.3,0,0.5,0
		c1,0.2,1.9,0.4,2.9,0.6c0.1,0,0.2,0.1,0.3,0.1c0.4-0.2,0.8,0,1.2,0c0.8,0,1.6,0.2,2.3,0.3c0.3,0,0.5,0.1,0.6-0.2
		C34.5,1,34.8,1,35.2,1c0.2,0,0.5,0,0.7,0.1c0.5,0.2,1,0.1,1.5,0.2c0.4,0,0.8,0,1.2,0.1c0.2,0,0.5-0.2,0.7,0c0.6-0.1,1.2,0.1,1.8,0
		c0.6-0.1,1.2-0.2,1.8-0.2c0.6,0,1.3-0.1,1.9,0.1c0.2,0.1,0.3,0,0.5,0c0.8,0,1.5,0,2.3,0c0.8,0,1.6,0,2.4-0.1c0.8,0,1.6-0.1,2.4,0.2
		c0.3,0.1,0.6,0.1,0.9,0.1c0.8,0,1.6,0.1,2.4,0.1c0.9,0,1.9-0.1,2.8-0.2c0.9,0,1.7,0,2.6,0c1.1,0,2.3,0,3.4,0c1.1,0,2.1-0.1,3.2-0.1
		c0.4,0,0.8,0.1,1.2,0.1c0.7,0,1.4-0.1,2.1-0.1c1.6-0.1,3.2-0.2,4.8-0.1c1.7,0.1,3.3,0.1,5,0.1c0.2,0,0.4-0.1,0.6-0.1
		c0.7,0,1.3-0.1,2-0.1c0,0,0.1,0,0.1,0c0.8-0.2,1.7-0.1,2.5-0.1c0.7,0,1.5-0.1,2.2-0.2c0.5,0,1-0.1,1.5,0.1c0.3,0.1,0.5,0.2,0.8,0.3
		c0.4,0.1,0.5,0.3,0.5,0.8c0,0.5-0.1,0.9-0.1,1.4c0,0.2-0.1,0.3-0.2,0.5c-0.1,0.2-0.3,0.4-0.3,0.7c-0.3,1.1-0.7,2.1-1.1,3.1
		c-0.2,0.4-0.3,0.9-0.4,1.3c-0.1,0.2-0.1,0.4,0.1,0.6c0.2,0.4,0.1,0.8-0.3,1c-0.6,0.3-0.8,0.8-1,1.3c-0.1,0.3-0.3,0.5-0.5,0.8
		c-0.2,0.3-0.3,0.5-0.2,0.8c0,0.1,0.1,0.2,0,0.3c-0.2,0.4-0.3,0.9-0.4,1.4c-0.1,0.4-0.3,0.8-0.5,1.2c-0.1,0.3-0.2,0.6-0.2,0.9
		c0,0.6-0.1,1.1-0.3,1.7c-0.3,1-0.6,2-0.9,3c-0.1,0.3-0.1,0.7-0.1,1c0.1,1.1,0.2,2.2,0.2,3.2c0,0.5,0.1,1,0.1,1.5
		c0,0.4-0.2,0.9-0.3,1.4c-0.2,0.5-0.5,1-0.5,1.5c0,0.4,0,0.8,0,1.2c0,0.4-0.1,0.8-0.2,1.2c-0.3,0.7-0.3,1.4,0,2.2
		c0.2,0.4,0.3,0.9,0.5,1.3c0.2,0.5,0.1,0.9,0,1.3c-0.2,0.8-0.5,1.5-0.4,2.3c0,0.2-0.1,0.4-0.1,0.6c0,0.2,0,0.4,0.1,0.6
		c0.3,0.5,0.1,1,0,1.5c-0.1,0.5-0.1,0.9-0.2,1.4c0,0.4,0,0.8,0,1.1c0,0.3-0.1,0.5-0.2,0.7c-0.1,0.1-0.2,0.3-0.2,0.5
		c0,0.5,0,1,0.2,1.5c0.1,0.3,0,0.6,0,0.9c0,0.3,0,0.6-0.1,0.9c0,0.1,0,0.2-0.1,0.3c-0.1,0.2-0.1,0.4-0.1,0.7c0.1,0.4,0,0.9,0.3,1.2
		c0.1,0.1,0.1,0.4,0.1,0.6c-0.1,0.6-0.2,1.2-0.2,1.8c-0.1,0.6-0.1,1.3-0.2,2c0,0.3,0.1,0.5,0.2,0.8c0,0.1,0.1,0.3,0.1,0.4
		c-0.1,0.9,0.2,1.8,0.1,2.6c0,0.5,0.1,1,0.6,1.3c0.5,0.3,0.6,0.9,0.7,1.5c0.1,0.3,0.1,0.6,0.2,0.9c0.3,0.7,1.2,0.8,1.7,0.4
		c0.8-0.7,1.8-0.9,2.8-1.1c0.7-0.1,1.3-0.1,2-0.4c0.2-0.1,0.4-0.2,0.6-0.4c0.5-0.6,1.1-0.9,1.8-1c0.5-0.1,1-0.3,1.5-0.4
		c0,0,0,0,0.1,0c0.8,0,1.3-0.3,1.7-1c0.1-0.1,0.3-0.2,0.4-0.3c1.1-0.5,2.2-0.9,3.3-1.2c0.3-0.1,0.5-0.2,0.6-0.5
		c0.2-0.6,0.7-1,1.1-1.4c0.4-0.4,0.8-0.8,1.1-1.3c0.4-0.8,0.8-1.6,1.2-2.4c0.1-0.1,0.1-0.2,0.2-0.3c0.8-0.8,0.8-1.9,1.2-2.9
		c-0.1-0.6-0.2-1.2-0.5-1.7c-0.3-0.3-0.5-0.6-0.8-0.9c-0.4-0.4-0.6-0.8-0.8-1.2c-0.2-0.8-0.8-1.1-1.5-1.3c-0.4-0.1-0.8-0.3-1.1-0.5
		c-0.6-0.3-1.2-0.6-2-0.6c-0.4,0-0.8,0-1.1,0.1c-0.1,0-0.2,0-0.2,0c-0.5-0.1-0.9-0.2-1.4-0.2c-1-0.1-1.8,0.2-2.5,0.9
		c-0.5,0.5-0.7,1.1-1.1,1.7c-0.3,0.4-0.3,0.9-0.3,1.4c0,0.1,0.1,0.3,0.3,0.5c-0.4,0.2-0.6,0.6-0.8,1.1c-0.1,0.6-0.3,1.1-0.5,1.6
		c-0.1,0.2-0.3,0.3-0.4,0.4c-0.3,0.1-0.5,0.2-0.8,0.2c-0.5,0-0.9,0.1-1.1,0.6c-0.2-0.2-0.4-0.4-0.3-0.7c0.1-0.4,0-0.7-0.1-1.1
		c-0.3-0.6-0.3-1.2-0.2-1.8c0.1-0.5,0-1.1-0.3-1.5c0,0,0-0.1,0-0.1c0,0,0-0.1,0-0.1c0.1,0,0.2,0.1,0.3,0.1c0.3-1,0.6-2,0.9-2.9
		c0.2-0.6,0.5-1.1,0.7-1.6c0.1-0.2,0.3-0.4,0.5-0.6c0.9-0.6,1.8-1.3,2.5-2.1c0.3-0.3,0.7-0.3,1-0.4c0.4-0.1,0.7,0,1.1,0
		c0.8,0.1,1.6,0.1,2.4-0.1c0.3-0.1,0.6,0,0.9,0.1c0.5,0.2,1,0.3,1.5,0.4c0.7,0.2,1.5,0.3,2.2,0.6c0.3,0.1,0.6,0.5,0.9,0.7
		c0.4,0.3,0.8,0.5,1.2,0.8c0.7,0.4,1.2,0.9,1.5,1.6c0.2,0.5,0.5,1,0.9,1.4c0.8,0.7,1.3,1.6,1.4,2.7c0,0.4,0.3,0.9,0.5,1.3
		c0.2,0.5,0.3,0.9,0,1.4c0,0,0,0.1-0.1,0.1c-0.4,1.4-1.1,2.7-1.2,4.2c0,0.1,0,0.3-0.1,0.4c-0.2,0.3-0.4,0.5-0.6,0.8
		c-0.3,0.5-0.7,1.1-1,1.6c0,0,0,0.1,0,0.2c0.1,0.9-0.5,1.4-1,1.9c-0.4,0.5-0.8,1-1.1,1.7c-0.3,0.9-1,1.3-1.9,1.5
		c-0.4,0.1-0.9,0.1-1.3,0.2c-0.8,0.1-1.4,0.4-1.9,1.1c-0.3,0.4-0.6,0.6-1,0.9c-0.3,0.2-0.5,0.4-0.8,0.6c-0.5-0.1-1.1-0.2-1.7-0.4
		c-0.2-0.1-0.4,0-0.6,0.1c-0.3,0.2-0.7,0.4-1,0.7c-0.4,0.3-0.8,0.6-1.3,0.9c-0.3,0.2-0.7,0.3-1.1,0.2c-0.5-0.2-0.9,0-1.3,0.2
		c-0.3,0.2-0.6,0.2-0.8,0.4c-0.4,0.3-0.7,0.7-1,1.1c0,0-0.1,0-0.4,0c0.2,0.3,0.4,0.5,0.5,0.7c0.2,0.3,0.4,0.5,0.7,0.8
		c0.3,0.4,0.6,0.8,0.9,1.3c0.4-0.2,0.7-0.4,1.1-0.6c0.9-0.5,2-0.7,3-0.9c0.9-0.1,1.8-0.5,2.6-1c0.6-0.4,1.3-0.6,1.9-1.1
		c0.7-0.5,1.5-0.8,2.3-1.1c0.8-0.4,1.7-0.8,2.5-1c0.7-0.2,1.3-0.5,1.9-0.6c0.4-0.1,1.1,0.4,1.1,0.9c0.1,0.3,0.1,0.5,0.2,0.8
		c0.2,0.6-0.2,1.8-0.8,2.1c-0.2,0.1-0.3,0.2-0.4,0.5c-0.1,0.3-0.2,0.4-0.5,0.4c-0.5-0.1-1.1-0.1-1.5,0.3c-1,0.1-1.8,0.8-2.7,1
		c-0.9,0.3-1.8,0.7-2.6,1.2c-0.2,0.1-0.5,0.2-0.7,0.2c-0.4,0-0.8,0.1-1,0.4c-0.1,0.1-0.2,0.1-0.3,0.1c-0.6,0-1.1,0.1-1.7,0.4
		c-0.7,0.4-1.4,0.7-2.1,0.7c-0.1,0-0.1,0-0.3,0.1c0.1,0.2,0.2,0.3,0.3,0.5c0.1,0.1,0.1,0.2,0.2,0.4c0.2,0.4,0.4,0.7,0.6,1.1
		c0.2,0.3,0.5,0.3,0.8,0.2c0.6-0.2,1.2-0.4,1.8-0.6c0.4-0.2,0.8-0.5,1.2-0.7c0.3-0.1,0.6-0.3,0.9-0.4c0.5-0.1,0.9-0.3,1.4-0.4
		c1.1-0.3,2.3-0.6,3.4-0.7c1.5-0.2,2.8-0.7,4.1-1.4c0.5-0.3,0.9-0.5,1.4-0.7c0.9-0.4,1.7-1,2.5-1.6c0.5-0.4,1-0.7,1.4-1.1
		c0.5-0.4,1.4-0.3,1.8,0.2c0.5,0.6,0.7,1.3,0.6,2.1c0,0.1-0.1,0.3-0.2,0.4c-0.5,0.5-1,1-1.6,1.4c0,0-0.1,0.1-0.1,0.1
		c-0.8,0.3-1.4,0.8-2.1,1.2c-0.2,0.1-0.4,0.1-0.6,0.2c-0.5,0.1-0.9,0.3-1.4,0.4c-0.2,0.1-0.3,0.3-0.4,0.4c-0.5,0.2-0.9,0.4-1.5,0.6
		c-0.4,0.1-0.7,0.3-1.1,0.5c-0.7,0.3-1.5,0.4-2.3,0.4c-0.8,0-1.7,0-2.5,0.3c-0.2,0.1-0.4,0.1-0.6,0.2c-0.3,0.1-0.6,0.1-0.8,0.3
		c-0.5,0.4-1,0.6-1.6,0.6c-0.4,0-0.9,0.1-1.3,0c-0.5-0.2-0.8,0.1-1.2,0.3c-0.3,0.1-0.5,0.3-0.8,0.4c0.2,0.9,0.8,1.6,1.2,2.3
		c0.6-0.1,1.1-0.2,1.7-0.3c0,0,0.1,0,0.1,0c0.7,0.2,1.4-0.1,2.1-0.3c0.7-0.2,1.4-0.4,2.1-0.5c1-0.2,2-0.3,3-0.4
		c0.5-0.1,1.1-0.3,1.6-0.5c1.1-0.4,2.1-0.8,3.2-1.2c0.7-0.3,1.3-0.5,2-0.8c1-0.5,2,0,2.4,1c0.1,0.4,0.2,0.7,0.3,1.1
		c0,0.6-0.4,1.1-1.1,1.2c-0.4,0.1-0.7,0.3-1.1,0.4c-0.3,0.1-0.5,0.1-0.8,0.1c-0.1,0-0.2,0-0.2,0c-0.8,0.5-1.7,0.6-2.6,0.9
		c-0.1,0-0.2,0.1-0.2,0.1c-0.7,0.6-1.5,0.7-2.3,0.8c-0.5,0-1.1,0.1-1.7-0.2c-0.2-0.1-0.5,0-0.8,0c-0.2,0-0.5,0.1-0.7,0.1
		c-0.1,0-0.1,0-0.2,0c-0.6,0.3-1.2,0.3-1.8,0.4c-0.2,0.1-0.5,0.2-0.7,0.3c-0.1,0.1-0.2,0.1-0.4,0.2c-0.6,0.3-1.2,0.2-1.8-0.2
		c-0.3-0.2-0.6-0.2-0.9-0.1c-0.3,0.1-0.4,0.3-0.3,0.5c0.3,0.8,0.2,1.7,0.7,2.5c0.1,0.2,0.1,0.4,0.1,0.6c-0.1,0.5-0.2,1-0.3,1.5
		c-0.1,0.4-0.1,0.7,0.2,1c0.3,0.4,0.4,0.8,0.6,1.3c0,0.1,0,0.2,0,0.2c-0.1,0.3-0.1,0.6-0.2,0.9c-0.3,0.8-0.2,1.5,0,2.3
		c0.1,0.3,0,0.7,0.3,1c0,0,0,0.2,0,0.2c-0.1,0.4-0.2,0.8-0.3,1.2c0,0.1-0.2,0.2-0.2,0.3c-0.1,0.1-0.3,0.3-0.4,0.4
		c0.3,0.7,0.6,1.2,0.8,1.8c0,0.1,0,0.2,0,0.3c-0.3,0.7-0.5,1.4-1,2c-0.3,0.4-0.5,0.8-0.5,1.3c0,0.5,0,0.9,0.1,1.2
		c-0.2,0.4-0.3,0.8-0.5,1.1c-0.3,0.7-0.5,1.4-0.8,2.1c-0.1,0.3-0.2,0.5-0.1,0.9c0.1,0.3-0.1,0.6-0.1,0.9c-0.1,0.3-0.2,0.5-0.2,0.8
		c0,0.7-0.4,1.1-0.8,1.6c-0.3,0.3-0.4,0.7-0.6,1c-0.1,0.2-0.1,0.3-0.2,0.5c-0.1,0.2-0.1,0.3-0.1,0.5c-0.1,0.6-0.2,1.3-0.7,1.7
		c-0.2,0.1-0.3,0.3-0.4,0.4c0,0.3,0,0.6,0,0.9c-0.1,0.3-0.2,0.6-0.6,0.8c-0.5,0.2-0.9,0.7-1.1,1.3c-0.2,0.6-0.5,1.1-0.8,1.7
		c-0.1,0.2-0.2,0.3-0.4,0.4c-0.7,0.2-0.9,1-1.4,1.3c-0.1,0.5-0.5,0.8-0.9,1.1c0,0-0.1,0.1-0.1,0.1c-1,0.3-1.6,1.3-2.6,1.7
		c-0.2,0.1-0.4,0.3-0.6,0.4c-0.2,0.2-0.5,0.3-0.7,0.5c-0.2,0.2-0.5,0.4-0.7,0.7c-0.8-0.1-1.3,0.6-1.8,1c-0.3,0.3-0.6,0.7-0.9,1.1
		c-0.2,0.3-0.5,0.3-0.8,0.3c-0.6,0.1-1.2,0.3-1.5,0.9c-0.1,0.2-0.4,0.4-0.6,0.6c-0.2,0.1-0.4,0.3-0.5,0.4c-0.4,0.6-1,0.8-1.6,1
		c-0.2,0-0.4,0.1-0.6,0.2c-0.4,0.2-0.8,0.3-1.3,0.6c-0.4,0.2-0.7,0.4-1,0.8c-0.3,0.4-0.8,0.7-1.4,0.8c-0.7,0.1-1.2,0.1-1.8-0.2
		c-0.3,0.4-1.2,0.2-0.9,1.1c0.2,0,0.3-0.1,0.5-0.1c0,0,0,0.1,0.1,0.1c-0.1,0.1-0.3,0.3-0.4,0.4c-0.4,0.2-0.7,0.4-1.1,0.4
		c-0.5,0.1-1,0.3-1.5,0.4c-0.5,0.2-1.1,0.4-1.7,0.3c-0.2,0-0.4,0.1-0.6,0.1c-0.3,0-0.6,0-0.8,0.1c-0.1,0-0.2,0-0.3,0.1
		c-0.5,0.5-1.2,0.5-1.8,0.8c-0.1,0-0.2,0-0.3,0c-0.4-0.1-0.9-0.1-1.3-0.2c-0.3-0.1-0.7,0-1,0.1c-0.9,0.3-1.7,0.2-2.6-0.1
		c-0.3-0.1-0.5-0.2-0.8,0c-0.1,0.1-0.3,0.1-0.5,0.1c-1-0.1-2,0-2.9-0.7c-0.2-0.1-0.5-0.2-0.7-0.3c-0.8-0.3-1.6-0.5-2.4-0.8
		c-0.1,0-0.2-0.1-0.2-0.2c-0.3-0.3-0.7-0.4-1.1-0.4c-0.6,0-1.1-0.1-1.6-0.3c-0.3-0.1-0.6-0.2-0.9-0.3c-0.3-0.1-0.6-0.2-0.8-0.3
		c-0.6-0.4-1.3-0.6-1.9-0.8c-1.1-0.4-2.2-0.7-3.2-1.3c-1-0.7-2.1-1.2-3.1-1.8c-0.7-0.4-1.3-0.9-2.1-1.3c-0.8-0.4-1.3-1-1.8-1.6
		c-0.5-0.6-0.8-1.2-1.2-1.8c-0.1-0.1-0.1-0.2-0.1-0.3c-0.5-0.4-0.8-1-1.2-1.5c-0.5-0.6-1-1.2-1.4-1.8c-0.3-0.4-0.6-0.9-0.8-1.4
		c-0.4-0.7-0.8-1.5-1.2-2.3c-0.3-0.5-0.6-1-1.1-1.4c-0.2-0.1-0.4-0.4-0.5-0.6c-0.7-1.1-1.4-2.3-2-3.4c0-0.1-0.1-0.1-0.1-0.2
		c-0.1-0.7-0.5-1.3-0.8-1.8c-0.4-0.7-0.7-1.5-1-2.2c-0.1-0.4-0.2-0.8-0.3-1.2c-0.1-0.6-0.1-1.2-0.1-1.8c0-0.3,0-0.7-0.1-1
		c-0.1-1.2-0.3-2.3-0.2-3.4c0-1.1-0.1-2.1-0.1-3.2c0-0.7,0-1.4,0.2-2c0.1-0.6,0.1-1.3,0.1-1.9c0-0.4-0.1-0.8,0-1.2
		c0.2-1,0.3-2.1,0.4-3.1c0,0,0-0.1,0-0.1c-0.2-0.6,0-1.2,0.2-1.8c0,0,0-0.1,0-0.2c-0.6,0-1.1,0.1-1.7,0.1c-0.6,0.1-1.3,0.2-1.9,0.3
		c-0.2,0-0.4,0.1-0.6,0.1c-0.8,0.2-1.5,0.6-2.4,0.5c-0.5,0-1,0-1.4,0.2c-0.3,0.1-0.7,0.1-1.1,0.2c-0.3,0-0.7,0-1,0.1
		c-0.4,0-0.9,0.1-1.3-0.2c-0.3-0.2-0.8-0.2-1.1-0.3c-0.2,0-0.5-0.1-0.5-0.2c-0.2-0.4-0.7-0.7-0.7-1.3c0-0.6,0.1-1.2,0.5-1.8
		c0.3,0.1,0.6,0.2,0.9,0.3c0.5,0.2,1.1,0.2,1.6,0c0.4-0.2,0.7-0.1,1.1-0.1c0.6,0.1,1.3,0.1,1.9,0c0.7-0.1,1.3,0.1,2,0.1
		c0.7,0,1.3-0.2,2-0.2c0.1,0,0.2-0.1,0.3-0.1c0.7,0.2,1.3,0,1.9-0.2c0.2,0,0.4-0.1,0.6,0c0.6,0.2,1.2,0,1.7-0.3
		c0.2-0.1,0.4-0.4,0.5-0.7c0.2-1,0.6-1.9,1.1-2.8c0.1-0.1,0.1-0.3,0.2-0.5c-1-0.1-2-0.6-3.1-0.4c-0.1,0-0.2,0-0.3,0
		c-0.7,0.3-1.4,0.3-2.2,0.2c-0.3,0-0.5,0-0.8-0.1c-0.1-0.1-0.2-0.3-0.2-0.3c-0.6,0-1.2-0.1-1.8,0.1c-0.7,0.1-1.4,0.4-2.1,0.3
		c-0.1,0-0.2,0-0.2,0c-0.6,0.4-1.2,0.2-1.8,0.1c-0.6-0.1-1.2-0.4-1.7-0.5C6.4,78.9,6.2,79,5.9,79c-0.5,0-1,0.1-1.5,0
		c-0.1,0-0.2,0-0.3,0.1c-0.3,0.3-0.7,0.2-1.1,0.2c-0.3,0-0.5,0-0.8,0c-0.8,0-1.6-0.1-2-0.9c0-0.1-0.1-0.1-0.1-0.2
		C0,77.4,0.2,76.7,0,76c-0.1-0.4,0.5-1.1,0.9-1c0.4,0,0.9,0.1,1.3,0.2c0.8,0.3,1.7,0.3,2.6,0.4c1.1,0.1,2.1,0.3,3.2,0.4
		C8.5,76,9,76.2,9.6,76C9.8,75.9,10,76,10.2,76c0.7,0,1.4,0,2.1,0.1c0.7,0.1,1.5,0,2.2,0c0.6,0,1.3-0.1,1.9-0.1
		c0.6-0.1,1.3-0.2,1.9-0.3c0.3-0.1,0.7-0.1,1,0.1c0.5,0.2,1,0.2,1.4,0c0.7-0.3,1.5-0.5,2.3-0.6c0.2,0,0.4-0.1,0.5-0.3
		c0.4-0.6,0.9-1.2,1.3-1.8c0,0,0-0.1,0.1-0.2c-0.1,0-0.3-0.1-0.4-0.1c-0.3,0.2-0.5,0.1-0.8,0c-0.6-0.3-1.2-0.4-2-0.2
		c-0.4,0.1-0.9,0.4-1.4,0c-0.1,0-0.2-0.1-0.2,0c-0.3,0.2-0.7,0.1-1.1,0.2c-0.2,0.1-0.5,0-0.7-0.1c-0.5-0.2-1-0.2-1.4,0
		c-0.6,0.2-1.1,0-1.7-0.1c-0.2-0.1-0.4-0.1-0.6-0.2c-0.4-0.1-0.6-0.3-0.9-0.6c-0.4-0.5-1-0.9-1.7-0.6c-0.2,0.1-0.5,0-0.6-0.1
		c-0.3-0.2-0.5-0.2-0.8-0.2c-0.5,0.1-1.1-0.1-1.6-0.3c-0.4-0.2-0.8-0.4-1.2-0.3c-0.2,0-0.6-0.3-0.7-0.5c-0.2-0.6-0.6-1.2-0.6-1.9
		c0-0.9,0.7-1.7,1.6-1.5c1.3,0.3,2.5,0.8,3.8,1.2c1.1,0.3,2.2,0.9,3.3,1.4c0.4,0.2,0.7,0.3,1.1,0.1c0.1-0.1,0.3-0.1,0.5,0
		c0.9,0.2,1.8,0.4,2.7,0.6c0,0,0.1,0,0.1,0c0.7,0,1.3,0.1,2,0.3c0.3,0.1,0.8-0.1,1.2-0.1c0.3-0.1,0.6-0.1,0.9,0.1
		c0.1,0,0.1,0.1,0.2,0.1c0.6,0,1.2,0.2,1.8,0.2c0.2,0,0.4,0,0.6,0c0.1-0.1,0.3,0,0.5,0.1c0.4,0.1,0.7,0.1,1.1-0.2
		c0.9-0.7,1.5-1.7,2.2-2.5c0,0,0-0.1,0-0.2c-0.3,0-0.5,0-0.7,0.1c-0.5,0.1-0.7,0-1-0.4c-0.3,0-0.7-0.1-1-0.1c-0.1,0-0.1,0-0.2,0
		c-1.1,0.2-2-0.3-3-0.5c-0.4-0.1-0.9-0.1-1.3-0.1c-0.5,0-1.1,0-1.6,0c-0.3,0-0.6,0.1-0.9,0.2c-0.4,0.2-0.8,0.2-1.1-0.1
		c-0.2-0.1-0.4-0.3-0.6,0.2c-0.2-0.6-0.6-0.7-1-0.8c-0.8-0.1-1.5-0.4-2-1.2c-0.1-0.1-0.2-0.2-0.4-0.3c-0.7-0.1-1.2-0.6-1.7-0.9
		c-0.3-0.1-0.4-0.5-0.6-0.8c-0.4-0.8-1.1-1.3-1.9-1.8c-0.4-0.2-0.8-0.4-1.1-0.7c-0.2-0.2-0.3-0.4-0.5-0.7c-0.1-0.2-0.1-0.4-0.2-0.5
		c-0.4-0.5-0.5-1.1-0.7-1.6c-0.2-0.6-0.5-1.1-0.7-1.6c-0.1-0.4-0.2-0.9-0.3-1.3c-0.2-0.6-0.4-1.1-0.6-1.7c0,0-0.1-0.1-0.1-0.1
		c0-0.9-0.6-1.7-0.4-2.6c0-0.1,0-0.2,0-0.2c-0.3-0.6-0.3-1.3-0.5-1.9c0-0.1,0-0.2,0-0.4c0.1-1.1,0.3-2.1,0.4-3.2
		c0.1-0.5,0-1,0.4-1.5c0.2-0.2,0.3-0.5,0.4-0.6c0.5-0.5,0.9-1.2,1.6-1.6c0.2-0.5,0.7-0.8,1-1.2c0.3-0.4,0.6-0.6,1.1-0.7
		c0.8-0.1,1.4-0.6,2.1-1c0.1,0,0.2-0.1,0.3-0.1c0.4-0.1,0.6-0.3,0.9-0.5c0.4-0.2,0.9-0.3,1.3-0.5c0.4-0.1,0.7-0.2,1.2-0.1
		c0.8,0.1,1.5-0.1,2.3,0.1c0.1,0,0.1,0,0.2,0c0.6-0.2,1,0.1,1.5,0.3c0.6,0.3,1.3,0.6,1.9,0.9c0.7,0.3,1.3,0.6,1.7,1.3
		c0.2,0.4,0.5,0.7,0.8,1.1c0.3,0.5,0.5,1,0.7,1.5c0.2,0.4,0.2,0.9,0.7,1.2c0.2,0.1,0.2,0.4,0.3,0.6c0.4,0.8,0.4,1.6,0.2,2.4
		c-0.2,0.9-0.3,1.9-0.5,2.8c-0.1,0.6-0.2,1.2-0.5,1.8c-0.2,0.3-0.5,0.6-0.8,0.9c-0.2,0.2-0.3,0.3-0.5,0.4c-0.1,0.1-0.3,0.2-0.4,0.2
		c-0.3,0-0.5,0.2-0.6,0.4c-0.4,0.5-0.9,0.7-1.5,0.9c-0.6,0.2-1.1-0.1-1.5-0.4c-0.1,0-0.1-0.2-0.1-0.3c-0.1-0.6-0.3-1.2-0.4-1.8
		c-0.1-0.7,0.2-1.2,0.7-1.5c0.6-0.4,1.1-0.9,1.7-1.3c0.2-0.1,0.4-0.2,0.5-0.4c0.1-0.1,0.3-0.2,0.3-0.4c0.3-0.8,0.8-1.5,0.7-2.4
		c0-0.1,0-0.2,0-0.3c0-0.3-0.1-0.4-0.3-0.6c-0.2-0.2-0.4-0.5-0.6-0.8c-0.2-0.3-0.3-0.7-0.7-0.9c-0.1,0-0.1-0.1-0.2-0.2
		c-0.3-0.4-0.6-0.6-1.1-0.5c-0.3,0-0.6,0-0.8-0.2c-0.8-0.4-1.7-0.4-2.5-0.6c-0.4,0.2-0.9,0.1-1.4,0.2c-0.6,0.1-1.1,0.4-1.7,0.3
		c-0.7,0.4-1.7,0.5-1.9,1.5c0,0,0,0.1,0,0.1c-0.1,0.2-1.3,1.4-1.5,1.4c-0.6,0.3-0.9,0.7-0.9,1.4c0,0.6-0.1,1.3-0.2,1.9
		c-0.2,0.7,0,1.3,0.1,2c0,0.3,0,0.6,0.1,0.9c0.1,0.4,0.4,0.8,0.5,1.2c0.2,0.4,0.3,0.8,0.5,1.3c0.1,0.2,0.1,0.4,0.2,0.6
		c0.2,0.6,0.4,1.2,0.6,1.7c0.1,0.2,0.3,0.4,0.5,0.6c0.7,0.5,1.4,0.9,2.1,1.4c0.3,0.2,0.7,0.6,0.8,0.9c0.2,0.4,0.5,0.6,0.9,0.8
		c0.6,0.3,1.2,0.5,1.7,1.1c0.1,0.1,0.3,0.2,0.5,0.3c0.4,0.1,0.8,0.2,1.2,0.5c0.3,0.2,0.7,0.2,1.1,0.5c0.6,0.4,1.3,0.6,2,0.7
		c0.6,0.1,1.2,0.1,1.8,0.2c0.4,0,0.7,0.1,1.1,0.1c1,0.1,2,0.3,3,0.4c0.3,0.1,0.7,0.2,1,0.3c0.8,0.1,1.6,0.1,2.4,0.1
		c0.5,0,0.7-0.2,0.8-0.7c0-0.1,0-0.3,0-0.4c0-0.8,0-1.5,0.1-2.2c0.1-0.3,0.1-0.5,0.3-0.8c0.4-0.7,0.6-1.5,0.6-2.3
		c0-0.7,0-1.5,0.1-2.2c0-0.2,0.1-0.5,0.2-0.7c0.4-0.5,0.2-1,0.2-1.6c0-0.4,0-0.8,0.1-1.2c0.1-0.8,0.2-1.6,0.2-2.5
		c0-0.2,0-0.5,0.1-0.7c0.1-0.8,0.1-1.5,0.1-2.3c0-0.1,0-0.2,0-0.3c0-0.5-0.1-0.9,0-1.4c0.1-0.4-0.1-0.9-0.1-1.3
		c0-0.2-0.1-0.3-0.1-0.5c0.1-1.1,0-2.2,0.1-3.3c0.1-0.5-0.1-1.1-0.2-1.6c-0.1-0.5-0.1-1-0.1-1.5c0.1-1.3,0-2.6-0.1-3.9
		c-0.1-0.9-0.1-1.9-0.1-2.8c-0.1-1.4-0.3-2.9-0.5-4.3c-0.2-1.2-0.5-2.4-0.8-3.5c-0.1-0.5-0.2-0.9-0.2-1.4c-0.1-1.1-0.4-2.2-0.9-3.2
		c-0.3-0.6-0.5-1.4-0.6-2.1c-0.2-1.1-0.5-2.1-0.9-3.1C29.7,9.7,29,8,28.1,6.3c-0.2-0.4-0.5-0.8-0.9-1.1C27,5,26.8,4.7,26.7,4.4
		C26.6,3.7,26.3,3.1,26.1,2.4z M24.6,110.9c0.1,0.1,0.2,0.2,0.4,0.4C25,110.8,24.9,110.8,24.6,110.9c0.1-0.1,0.3-0.3,0.4-0.4
		c0.1-1-0.2-2.1,0.2-3.1c0,0,0-0.1,0-0.1c-0.2-0.3,0-0.7,0-1c0-1.5,0.3-3,0.6-4.5c0.1-0.7,0.3-1.4,0.5-2.1c0-0.2,0.2-0.3,0.3-0.4
		c0.7-0.5,0.8-1,0.3-1.7c-0.2-0.3-0.2-0.5-0.1-0.8c0.1-0.6,0.3-1.1,0.5-1.7c0.1-0.2,0.1-0.4,0-0.6c-0.2-0.4-0.3-0.8-0.6-1.2
		c-0.2-0.4-0.5-0.8-0.8-1c-0.3-0.2-0.5-0.5-0.5-0.8c0-0.2-0.1-0.4-0.2-0.6c-0.3-0.9-0.7-1.7-0.8-2.6c0-0.2-0.1-0.5-0.2-0.7
		c-0.2-0.5-0.5-0.9-0.6-1.5c0-0.2,0.1-0.6-0.3-0.7c-0.1,0.2-0.1,0.3-0.1,0.4c0,0.4-0.1,0.8-0.4,1.2c-0.4,0.7-0.8,1.5-0.7,2.4
		c0.1,1.2,0.1,2.5,0.2,3.7c0,0.2,0.1,0.4,0.2,0.6c0.2,0.5,0.5,1.1,0.2,1.7c0,0.1,0,0.1,0,0.2c0,0.4,0,0.7,0,1.1c0,0.7-0.1,1.3-0.1,2
		c0,0.5,0.2,0.9,0,1.4c0,0.1,0,0.2,0.1,0.3c0,0.2,0.1,0.4,0.1,0.6c0,0.6,0,1.1,0,1.7c0,0.7,0.1,1.3,0.1,2c0,0.7,0.1,1.5,0.1,2.2
		c0,0.9,0.1,1.6,0.6,2.4c0.3,0.5,0.7,1,1,1.6C24.6,110.6,24.6,110.7,24.6,110.9z M65.7,24.1c0-0.4,0-0.7,0-1c0-0.3,0.1-0.7-0.1-0.9
		c-0.5-1.2-0.4-2.4-0.5-3.6c-0.1-0.8,0.1-1.7,0.2-2.5c0.1-1.3-0.1-2.7,0.1-4c0.1-0.5,0-1.1,0-1.6c0-0.7,0.1-1.3,0.1-2
		c0.1-1,0.1-1.9,0.2-2.9c0-0.4-0.1-0.5-0.5-0.5c-0.8,0-1.5-0.2-2.3,0.3c-0.1,0.1-0.2,0.1-0.3,0.1c-0.8,0-1.6,0.1-2.4,0.1
		c-0.4,0-0.8,0.1-1.2-0.2c-0.2-0.2-0.5-0.2-0.8-0.3C57.2,5,56.3,5,55.4,4.9c-0.1,0-0.2,0-0.3,0c-0.4,0.1-0.8,0.2-1.3,0.3
		c-0.3,0.1-0.7,0.1-1.1,0.1c-0.5,0-0.9-0.2-1.3-0.3c-0.5-0.1-1.1-0.2-1.6-0.1c-0.5,0.1-1,0.2-1.5,0.3c-1,0.1-2,0.3-3.1,0.4
		c-0.1,0-0.3,0-0.4,0c-0.3-0.1-0.7-0.2-1-0.3c-0.3,0-0.6-0.4-0.9-0.4c-0.6,0-1.3-0.1-1.9,0.1c-0.4,0.1-0.7,0.1-1.1-0.1
		c-0.4-0.3-1-0.4-1.4-0.2C38,5,37.6,4.9,37.2,4.8c-0.5-0.1-1.1-0.3-1.6-0.3c-0.7,0-1.4,0-2.1-0.3c-0.1,0-0.2,0-0.2-0.1
		c-0.4-0.1-0.8,0.1-1,0.4c-0.3,0.3-0.1,0.6,0.1,0.9c0.3,0.5,0.5,1.1,1,1.5c0.1,0.1,0.1,0.2,0.2,0.4c0.1,0.5,0.4,0.8,0.8,1.1
		c0.5,0.4,0.9,0.9,0.7,1.6c0,0.1,0,0.2,0,0.3c0.4,0.7,0.6,1.4,0.9,2.1c0.2,0.4,0.4,0.7,0.5,1c-0.1,0.2-0.3,0.3-0.4,0.5
		c0,0.3,0,0.7,0.1,0.9c0.3,0.7,0.5,1.3,0.6,2.1c0.2,1.1,0.4,2.2,0.6,3.3c0.1,0.3,0.2,0.6,0.3,0.8c0.2,0.3,0.2,0.5,0.1,0.8
		c0,0.2,0,0.4,0,0.5c0.2,0.5,0.3,1,0.3,1.6c0,0.3,0,0.6,0.1,0.9c0.1,0.5,0,1-0.1,1.5c0,0.2-0.1,0.4,0.1,0.6c0.2,0.2,0.2,0.5,0.2,0.7
		c0,0.3,0,0.7,0,1.1c0,0.1,0,0.2,0,0.2c-0.2,0.4-0.1,0.9,0,1.3c0.1,0.6,0.2,1.1,0,1.6c-0.1,0.3-0.1,0.7-0.1,1c0,0.5-0.1,1-0.1,1.5
		c0.3,0.3,1,0.3,1,0.9c-0.1,0.2-0.3,0.4-0.3,0.6c-0.1,0.5-0.9,0.9-0.5,1.6c0,0,0,0,0,0.1c-0.2,0.3,0.1,0.5,0.1,0.7
		c0.1,0.2-0.1,0.5-0.1,0.8c0,0.4,0.1,0.8,0.1,1.2c0,0.2,0.1,0.5,0.2,0.7c0.3,0.3,0.2,0.6,0.2,0.9c-0.1,0.3,0,0.5-0.1,0.8
		c0,0.1,0,0.3,0,0.4c0,0.2,0,0.3-0.1,0.5c0,0.5,0,1-0.1,1.5c-0.1,0.6-0.2,1.2,0.5,1.5c0,0,0.1,0.1,0.1,0.1c0.4,0.3,0.8,0.6,1.3,0.8
		c0.6,0.2,1.1,0.3,1.6,0.6c0.4,0.3,0.8,0.3,1.2,0.3c0.8,0,1.5,0.1,2.2,0.4c0.3,0.1,0.5,0.2,0.8,0.2c0.4,0,0.8-0.1,1.1-0.1
		c0.5,0,1-0.2,1.5,0.2c0.2,0.1,0.6,0.1,0.8,0.1c0.6-0.2,1.3-0.2,1.9,0c0.2,0.1,0.4,0.1,0.5,0.1c0.9-0.1,1.7,0.1,2.6-0.1
		c0.6-0.1,1.2-0.1,1.8-0.1c0.7,0,1.5,0,2.2,0c0.1,0,0.3,0,0.4,0c0.6,0,1.2-0.1,1.8-0.1c0.6,0,1.2-0.3,1.8-0.1c0.1,0,0.1,0,0.2-0.1
		c0.4-0.1,0.8-0.2,1.2-0.2c1,0.2,2,0,3-0.1c0.7,0,1.3-0.1,2,0c0.1,0,0.2,0,0.3,0c0.4-0.2,0.9-0.2,1.4-0.3c1.1-0.2,1.3-0.5,1.2-1.5
		c-0.1-0.6,0-1.1,0-1.7c0-0.1,0-0.1,0-0.2c0.1-0.4,0.2-0.8,0.2-1.3c0.1-0.6,0.1-1.3,0.1-1.9c0-0.7,0.1-1.4,0.1-2.1
		c0-1,0.1-1.9,0.3-2.9c0.1-0.7,0.2-1.3,0.3-2c0-0.3,0-0.6,0-0.9c0-0.3,0-0.5,0.2-0.7c0.1-0.2,0.2-0.4,0.2-0.5
		c0.1-0.8,0.2-1.7,0.3-2.5c0.2-1.3,0.7-2.6,0.9-4c0,0,0,0,0-0.1c0.3-0.5,0.3-1.1,0.3-1.6c0-1,0.2-2,0.6-2.9c0.1-0.1,0.1-0.3,0.1-0.5
		c-0.5,0.1-0.9,0.3-1.3,0.4c0.2,0.7,0,1.2-0.4,1.7c-0.4,0.5-0.6,1.1-0.8,1.6c-0.3,1-0.8,1.9-1.7,2.6c-0.1,0.1-0.2,0.2-0.2,0.3
		c-0.4,0.9-0.9,1.8-1.1,2.8c-0.3,1-0.9,1.8-1.5,2.6c-0.3,0.4-0.6,0.7-1,1.1c-0.4,0.4-0.6,0.9-0.9,1.4c0.1,0.8-0.2,1.4-0.9,1.7
		c0,0,0,0,0,0c-0.1,0.3-0.4,0.2-0.6,0.2c-0.3,0-0.6,0-1,0c-0.1-0.1-0.4-0.2-0.5-0.4c-0.2-0.4-0.4-0.8-0.3-1.2c0-0.4,0-0.9,0.5-1.1
		c0.2-0.1,0.3-0.3,0.3-0.5c0.1-0.4,0.2-0.9,0.3-1.3c0.1-1,0.3-2,0.5-2.9c0.1-0.4,0.1-0.8,0-1.2c-0.2-0.7-0.2-1.4,0.1-2
		c0.1-0.1,0.2-0.3,0.1-0.4C65.1,25.3,65.5,24.7,65.7,24.1z M35.6,67.3c-0.2,0.3-0.4,0.6-0.7,0.8c-0.8,0.7-1.6,1.3-2.4,2
		c-0.5,0.5-1,1-1.1,1.8c0,0.3-0.2,0.6-0.5,0.8c-0.4,0.3-0.8,0.6-1.2,0.9c-0.4,0.3-0.6,0.6-0.9,1c-0.4,0.7-0.9,1.4-1.4,2
		c-0.2,0.3-0.4,0.5-0.4,0.8c0.1,0.8-0.3,1.6,0,2.4c0.1,0.3,0.1,0.6,0.1,0.9c0,0.7-0.1,1.3-0.2,2c-0.1,1-0.3,2,0.1,2.9
		c0,0,0,0.1,0,0.1c0.2,0.9,0.5,1.8,0.9,2.7c0.3,0.7,0.8,1.3,1.1,2c0.2,0.3,0.4,0.5,0.8,0.4c0.2,0,0.4-0.2,0.5,0.1
		c0.6,0.2,0.7,0.9,1,1.3c0.5,0.9,1,1.8,1.4,2.7c0.6,1.1,1.4,1.8,2.2,2.6c0.3,0.3,0.7,0.6,0.9,1c0.5,0.8,1.2,1.4,2.1,1.7
		c0.9,0.3,1.9,0.7,2.7,1.2c0.5,0.3,1,0.6,1.3,1.2c0.2,0.4,0.5,0.8,1.1,0.8c0.7,0.1,1.4,0.2,2.1,0.3c0.7,0.1,1.4,0.2,1.9,0.6
		c0.3,0.2,0.6,0.4,0.8,0.7c0.2,0.3,0.5,0.7,1,0.7c0.5,0,1,0.1,1.5,0.1c1,0,2,0,2.8,0.6c0.2,0.2,0.6,0.1,0.9,0.2c0.2,0,0.4,0,0.6,0
		c0.9-0.1,1.8,0,2.7,0.3c0.2,0.1,0.5,0.1,0.7,0.1c0.5-0.1,1-0.1,1.6-0.2c0.9-0.1,1.7-0.3,2.6-0.6c0.3-0.1,0.6-0.1,1-0.1
		c0.2,0,0.3,0,0.5,0c0.5,0,1.1-0.3,1.6,0.1c0.2-0.1,0.3-0.3,0.4-0.4c0.4-0.1,0.7-0.6,1.2-0.4c0.1,0,0.2-0.1,0.3-0.1
		c0.1-0.1,0.3-0.2,0.4-0.2c0.7,0,1.4-0.3,2-0.6c0.3-0.1,0.6-0.2,0.8-0.3c0.4-0.3,0.7-0.3,1.1-0.2c0.1,0,0.3,0.1,0.4,0.1
		c0.4-0.1,0.8-0.2,1.2-0.3c0.7-0.2,1.3-0.8,2.1-0.9c0.7-0.6,1.6-0.6,2.4-1.1c0.3-0.2,0.7-0.2,0.9-0.7c0-0.1,0.3-0.2,0.4-0.3
		c0.1-0.1,0.2-0.1,0.4-0.2c0.5-0.3,1.1-0.6,1.6-1c0.3-0.2,0.7-0.5,0.9-0.8c0.3-0.4,0.6-0.7,1-0.9c0.7-0.4,1.4-0.8,1.5-1.7
		c0-0.1,0-0.2,0.1-0.3c0.3-0.5,0.5-1.1,1.2-1.3c0.4-0.1,0.6-0.3,0.8-0.7c0.2-0.3,0.4-0.7,0.5-1c0.2-0.5,0.5-1.1,0.6-1.6
		c0.2-0.7,0.5-1.4,0.9-1.9c0.5-0.7,1.1-1.3,1.3-2.2c0.1-0.3,0.3-0.6,0.6-0.8c0.4-0.4,0.8-0.7,0.8-1.3c0-0.9,0.1-1.9,0-2.8
		c-0.1-0.3-0.1-0.7-0.1-1c0.1-0.1,0.3-0.1,0.3-0.2c0.2-0.2,0.2-0.4,0.1-0.6c-0.3-0.5-0.5-1.1-0.7-1.6c-0.2-0.5-0.4-1-0.8-1.4
		c-0.2-0.3-0.5-0.6-0.7-0.9c-0.3-0.7-0.6-1.4-0.9-2c-0.1-0.1-0.1-0.3-0.2-0.4c-0.4-0.5-0.8-1-1.2-1.5c-0.1-0.2-0.2-0.4-0.3-0.6
		c-0.1-0.3-0.3-0.5-0.5-0.8c-0.2-0.3-0.5-0.6-0.7-0.9c-0.1-0.1-0.1-0.2-0.2-0.2c-0.7-0.6-1.5-1.2-2.1-2c-0.2-0.2-0.5-0.3-0.6-0.5
		c-0.5,0.3-0.8,0.6-1.2,0.7c-0.6,0.1-1.3,0.1-1.9,0.1c-0.5,0-1.1-0.2-1.6-0.2c-0.3,0-0.7,0-1,0.2c-0.3,0.1-0.5,0.1-0.8,0
		c-0.4-0.2-0.8-0.3-1.2-0.3c-0.9,0.1-1.9,0.1-2.8,0.2c-0.7,0.1-1.3,0.1-1.9,0.2c-0.2,0-0.5,0.1-0.7,0.2c-0.3,0.1-0.6,0.4-0.9,0.4
		c-0.7,0-1.3,0-2,0.1c0,0-0.1,0-0.1,0c-0.3-0.1-0.6,0-0.9,0.2c-0.4,0.2-0.9,0.3-1.3-0.1c-0.2-0.2-0.4-0.3-0.7-0.5
		c-0.2-0.1-0.4-0.2-0.5-0.2c-0.4,0.1-0.8-0.1-1.2-0.1c-0.3-0.1-0.5-0.2-0.8-0.2c-0.6,0.1-1.1-0.2-1.7-0.1c-0.1,0-0.2,0-0.2,0
		c-1-0.1-2-0.1-3,0.2c-0.4,0.2-0.8,0.1-1.2,0c-0.8-0.3-1.6-0.3-2.4-0.1c-0.2,0.1-0.5,0-0.8,0c-0.5-0.1-1,0-1.3,0.4
		c-0.1,0.1-0.2,0.1-0.3,0.3c-0.1-0.4-0.3-0.5-0.6-0.5c-0.1,0-0.3-0.1-0.4-0.2c-0.3-0.4-0.7-0.4-1.1-0.4c-0.4,0-0.8-0.1-1.2-0.2
		c-0.6-0.2-1.2-0.5-1.8-0.2c-0.2,0.1-0.6,0.1-0.8,0c-0.9-0.2-1.9,0.1-2.8-0.2c0,0-0.1,0-0.1,0c-0.6,0.1-1.3,0.1-1.9-0.1
		c-0.4-0.2-0.9-0.2-1.3-0.1c-0.4,0.1-0.8,0.2-1.2,0.2c-0.2,0-0.4,0-0.6-0.1C36,67.5,35.8,67.4,35.6,67.3z M50.7,110.8
		c-0.6,0-1.1-0.1-1.6-0.4c-0.2-0.2-0.5-0.1-0.5,0.1c-0.2,0.5-0.6,0.9-0.8,1.4c-0.4,1.1-0.7,2.3-0.8,3.5c0,0.5-0.2,1-0.3,1.5
		c-0.1,0.5-0.1,1.1-0.2,1.6c-0.1,0.4-0.2,0.7,0.1,1.1c0,0,0.1,0.1,0.1,0.2c0.1,0.9,0.3,1.8,0,2.7c0,0.2,0,0.4,0,0.5
		c0,0.6,0.1,1.2,0.1,1.8c-0.1,1,0.2,1.8,0.6,2.6c0.3,0.6,0.5,1.2,0.5,1.9c0,0.9,0.6,1.6,1.5,1.6c0.4,0,0.8,0.1,1.2,0.1
		c0.1,0,0.3,0.1,0.4,0.2c0.5,0.5,1.2,0.7,1.9,0.6c0.7-0.1,1.5-0.4,2.2,0.2c0.8,0.1,1.6,0.3,2.3-0.2c0.6-0.4,1.3-0.5,2-0.5
		c0.7,0,1.4-0.1,2.1-0.4c0.3-0.2,0.8-0.4,1.1-0.4c0.4,0,0.7-0.2,1-0.4c0.8-0.5,1.7-0.9,2.5-1.3c0.7,0.1,1-0.4,1.3-1
		c0.3-0.8,0.7-1.6,0.6-2.5c-0.1-0.8,0.2-1.6,0.5-2.3c0.6-1.2,1-2.5,1-3.9c0-0.9,0-1.8,0-2.7c0-1.1,0.2-2.1,0.4-3.2
		c0.2-1.4,0.4-2.8,0.5-4.3c0-0.2,0-0.4,0-0.5c-0.1-0.3-0.2-0.6-0.3-0.9c-0.4,0-0.9-0.1-1.1,0.4c-0.3,0.6-0.7,0.7-1.3,0.7
		c-0.2,0-0.4,0-0.5,0.1c-0.1,0.1-0.2,0.1-0.3,0.1c-1.2,0.3-2.4,0.5-3.7,0.8c-0.4,0.1-0.8,0.2-1.1,0.5c-0.2,0.2-0.5,0.2-0.8,0.3
		c-0.6,0.1-1.3,0.1-2,0.2c-0.5,0-1,0.3-1.4-0.1c-0.1,0-0.2,0-0.2,0c-0.5-0.1-1-0.2-1.5-0.3c-0.4,0-0.8-0.1-1.3,0
		c-0.5,0.1-1,0.3-1.5,0.1c-0.3-0.1-0.7-0.2-1-0.2c-0.1,0-0.3,0-0.4-0.1c-0.2-0.2-0.5-0.2-0.8-0.1C50.8,110.5,50.7,110.6,50.7,110.8z
		 M51.6,65.3c0.4,0,0.8-0.1,1.2-0.1c1.1,0,2.3,0,3.4,0c0.3,0,0.6,0,0.9,0c1.4,0.1,2.8,0.2,4.2,0.4c0.8,0.1,1.6,0.2,2.4,0.3
		c0.5,0.1,1,0.1,1.5,0c0.6-0.1,1.2-0.2,1.8-0.3c0.4-0.1,0.8-0.2,1.1-0.3c0.1,0,0.2-0.1,0.3-0.1c0.6-0.1,1.2,0,1.8-0.2
		c0.2,0,0.4,0,0.6,0c0.2,0,0.4,0,0.7,0c1.3-0.1,2.5-0.1,3.8,0.1c0.1,0,0.2,0,0.3,0c0.9-0.2,1.7-0.3,2.6-0.3c0.5,0,1-0.1,1.6-0.1
		c0-0.7,0-1.4-0.1-2c-0.1-0.7-0.2-1.3-0.3-2c-0.1-0.7-0.1-1.4-0.2-2.1c-0.2-0.8-0.1-1.6-0.1-2.4c0-0.9,0.1-1.7,0.1-2.6
		c0-0.7-0.2-1.3-0.1-2c0.1-0.5,0-1,0-1.5c-0.3-0.1-0.7-0.1-0.9-0.5c-0.1-0.2-0.4-0.1-0.4,0.1c0,0.1-0.1,0.2-0.1,0.4
		c-0.5,0.1-1,0.2-1.4,0.2c-0.4,0-0.8,0.1-1.1,0.4c-0.3,0.3-0.6,0.4-1.1,0.3c-0.5-0.1-1-0.1-1.3,0.3c-0.2,0-0.3-0.1-0.4-0.1
		c-0.6,0.1-1.3,0-1.9,0.3c-0.1,0-0.2,0.1-0.2,0.1c-0.6-0.1-1.1,0.2-1.6,0.4c-0.2,0.1-0.4,0.1-0.5,0.1c-0.4-0.2-0.8,0.1-1.2,0.2
		c-0.8,0.3-1.6,0.2-2.3,0.1c-0.7-0.1-1.5-0.2-2.2,0.1c-0.2,0.1-0.4,0.1-0.6,0c-0.5-0.3-1-0.3-1.6-0.3c-0.2,0-0.4,0-0.6,0.1
		c-0.4,0.1-0.9,0.2-1.3,0.3c-0.1,0-0.2,0-0.3-0.1c-0.2,0-0.3-0.1-0.5-0.1c-0.5-0.1-1-0.2-1.5-0.3c-0.1,0.1-0.2,0.2-0.2,0.3
		c-0.1,0.2-0.3,0.3-0.5,0.3c-0.3,0-0.6,0.1-0.9,0.1c-0.1,0-0.2,0.1-0.3,0.2c-0.1,0.2-0.3,0.4-0.3,0.6c-0.4,1.2-0.8,2.4-1.4,3.5
		c-0.3,0.6-0.3,1.4,0,2c0.3,0.6,0.2,1-0.1,1.5c-0.2,0.3-0.3,0.6-0.4,0.9c-0.1,0.1-0.1,0.3-0.2,0.4c-0.2,0.5-0.5,1-0.2,1.6
		c0.2,0.4,0.2,0.8,0,1.2C51.3,65,51.4,65.2,51.6,65.3z M43.4,129c0.7-0.4,0.7-0.5,0.5-1.1c-0.2-0.6-0.4-1.1-0.7-1.7
		c-0.1-0.3-0.2-0.6,0-0.9c0.2-0.3,0.2-0.6,0.2-0.9c0-0.1,0-0.2,0-0.3c0.3-0.5,0.1-1,0-1.5c0-0.2-0.1-0.3-0.1-0.5
		c-0.1-0.6-0.1-1.1-0.2-1.7c-0.1-0.8-0.2-1.6,0.1-2.4c0-0.1,0-0.2,0-0.3c0.1-0.7,0.1-1.5,0.2-2.2c0.2-1.2,0.4-2.3,0.5-3.5
		c0.1-1,0-2,0.1-3c0-0.3-0.1-0.5-0.4-0.6c-0.4-0.2-0.7-0.3-1-0.6c-0.3-0.2-0.5-0.3-0.8-0.1c-0.1,0.2-0.2,0.5-0.3,0.7
		c-0.3-0.1-0.5-0.2-0.7-0.2c-0.3-1.1-1.1-1.8-2.1-2.2c-0.9-0.3-1.8-0.6-2.7-0.9c-0.7-0.2-1.1-0.7-1.4-1.2c-0.3-0.5-0.6-1-1.1-1.4
		c-0.3-0.3-0.5-0.6-0.8-0.8c-0.2-0.2-0.3-0.4-0.5-0.5c-0.1-0.1-0.3-0.2-0.4-0.4c-0.4-0.5-0.7-1.1-1.1-1.6c-0.1-0.1-0.1-0.2-0.2-0.3
		c-0.2,0.3-0.4,0.6-0.6,0.8c-0.3,0.2-0.3,0.4-0.3,0.7c0.1,0.6-0.1,1.1-0.3,1.5c-0.2,0.4-0.3,0.7-0.4,1.1c-0.1,0.3-0.2,0.6-0.3,0.9
		c-0.1,0.3-0.3,0.7-0.3,0.9c0.1,0.4,0,0.7,0,1.1c0,0.6,0,1.2-0.1,1.8c0,0.7-0.1,1.3,0.1,2c0.1,0.4,0.1,0.7-0.1,1c-0.1,0-0.3,0-0.3,0
		c0.1,0.7,0.3,1.3,0.2,1.8c-0.1,0.7-0.2,1.3,0,1.9c0.2,0.8,0.1,1.8,0.7,2.5c0.1,0.1,0,0.2,0.1,0.3c0.2,0.6,0.4,1.2,0.8,1.8
		c0.2,0.3,0.5,0.7,0.6,1c0.3,0.7,0.6,1.4,1.1,1.9c0.5,0.5,0.9,1.1,1.3,1.6c0.5,0.7,1,1.1,1.8,1.4c0.6,0.2,1.2,0.4,1.7,0.8
		c0.5,0.4,1,0.8,1.6,1.2c0.7,0.5,1.6,0.8,2.4,1.1c0.3,0.1,0.6,0.1,0.9,0.2C42,128.5,42.7,128.8,43.4,129z M79,43
		c0.2-0.4,0.4-0.6,0.4-1c0-0.6,0.1-1.1,0.1-1.7c0-0.7,0-1.5,0.1-2.2c0-0.6,0.1-1.2,0.1-1.7c0-0.9-0.1-1.8-0.1-2.7
		c0-1.1,0-2.2,0.2-3.3c0.1-0.8,0.3-1.6,0.4-2.5c0.1-1.1,0.2-2.1,0.3-3.2c0-0.3,0.1-0.5,0.1-0.8c0.1-0.9,0.1-1.8,0.1-2.7
		c0.1-0.7,0.2-1.3,0.3-2c0.1-0.6,0.1-1.2,0.2-1.8c0.3-1.1,0.6-2.1,0.9-3.2c0.2-0.7,0.3-1.5,0.6-2.2c0.3-0.8,0.6-1.6,0.8-2.5
		c0.2-0.6,0.4-1.3,0.7-1.9c0.4-0.8,0.7-1.7,1.1-2.5c-0.4-0.4-0.4-0.4-1-0.3c-0.7,0-1.4,0-2.1-0.1c-0.5-0.1-1.1,0-1.6,0.2
		C80.4,5,80.2,5.1,80,5.1c-0.3,0.1-0.6,0-0.9,0.1C78.5,5.4,78,5.3,77.4,5C77,4.8,76.5,4.6,76,4.6c-0.5,0-1,0.1-1.6,0.1
		c-0.3,0-0.6,0-0.8,0.1C73.4,5,73.2,5,73.1,4.8c-0.2-0.3-0.4-0.3-0.7-0.2c-0.5,0.1-1.1,0.1-1.5-0.3c-0.3,0.3-0.5,0.7-0.5,1.1
		c0,0.5,0,1-0.1,1.6c-0.1,0.4-0.2,0.8,0.1,1.2c0,0,0,0.2,0,0.2c0,0.4-0.1,0.8-0.1,1.2c-0.2,0.9-0.3,1.9-0.3,2.8c0,1,0,1.9-0.3,2.9
		c0,0.1,0,0.2,0,0.3c0,0.4,0,0.7-0.3,1c-0.1,0.1-0.1,0.3-0.1,0.4c0,0.5-0.1,0.9-0.5,1c0,0.6,0.1,1.1,0,1.6c0,0.2-0.1,0.4-0.1,0.6
		c0.2,0.9,0.3,1.7,0.2,2.6c-0.1,1-0.5,1.9-0.9,2.7c-0.3,0.8-0.6,1.6-0.5,2.5c0,0.6,0.1,1.2-0.2,1.8c0,0.1,0,0.1,0,0.3
		c0.1-0.1,0.2-0.1,0.3-0.2c0.3-0.3,0.5-0.7,0.7-1.1c0.3-0.6,0.7-1.2,0.9-1.8c0.2-0.5,0.4-0.9,0.7-1.2c0.3-0.3,0.6-0.5,0.9-0.7
		c0.2-0.1,0.4-0.3,0.6-0.5c0.3-0.4,0.6-0.8,0.8-1.2c0.3-0.5,0.7-1.1,1-1.6c0.3-0.6,0.6-1.2,0.9-1.9c0.1-0.2,0.2-0.4,0.4-0.4
		c0.5-0.3,0.8-0.7,1-1.2c0.3-0.6,0.6-1.3,1.4-1.3c0-0.1,0.1-0.1,0.1-0.1c0.3-0.6,0.6-0.8,1-0.6c0.5,0.2,0.8,0.6,0.6,1.2
		c-0.1,0.4-0.3,0.8-0.3,1.1c-0.1,0.3-0.1,0.7-0.1,1c0,0.3,0,0.6,0,0.9c0,0.4,0,0.8-0.3,1.1c-0.1,0.1-0.3,0.3-0.3,0.5
		c0,0.6,0,1.2,0,1.8c0,0.1,0.1,0.2,0.2,0.3c0.2,0.3,0.2,0.6,0,0.8c-0.1,0.1-0.2,0.2-0.3,0.3c-0.3,0.3-0.6,0.6-0.5,1.1
		c0,0.2-0.1,0.4-0.2,0.6c-0.3,0.4-0.1,0.8,0.2,1.1c0.2,0.2,0.2,0.5,0.1,0.7c-0.2,0.5-0.5,1.1-0.8,1.5c-0.2,0.3-0.2,0.4,0,0.7
		c0.2,0.2,0.4,0.5,0.3,0.9c0,0.1,0.2,0.3,0.3,0.5c0.2-0.3,0.3-0.6,0.4-0.8c0.1-0.4,0.4-0.7,0.8-0.8c0.2-0.1,0.4-0.2,0.5-0.4
		c0.1-0.1,0.2-0.1,0.2-0.2c0.2,0.5-0.2,0.8-0.3,1.1c-0.3,0.6-0.7,1.1-1.2,1.5c-0.3,0.3-0.6,0.6-0.8,1c-0.1,0.3-0.3,0.4-0.5,0.6
		c-0.1,0-0.1,0.1-0.1,0.1c0,0.3,0,0.6,0.1,0.9c0.1,0.4-0.1,0.7-0.1,1.1c0,0.7,0,1.4,0.1,2.1c0,0.1,0,0.1,0,0.2
		c0.3,0.3,0.3,0.6,0.3,1c0,0.1,0,0.2,0.1,0.3c0.2,0.3,0.2,0.7,0.3,1.1c0,0.3,0,0.5-0.3,0.7c-0.4,0.3-0.5,0.7-0.3,1.2
		c0.1,0.3,0.1,0.6,0.2,0.9c0,0.2,0,0.4,0.2,0.5c0.4,0.3,0.3,0.8,0.3,1.2c0,0.2-0.1,0.4-0.1,0.6c-0.1,0.3,0.1,0.6,0.4,0.5
		c0.6-0.1,1.3-0.1,2-0.2c0-1.1,0.4-2.2,0.2-3.3C79.3,43.1,79.2,43.1,79,43z M70.2,127.6c0.1,0,0.1,0,0.2,0c0.6-0.2,1.2-0.5,1.8-0.7
		c0.1,0,0.1-0.1,0.2-0.2c0-0.1,0.1-0.2,0.2-0.2c0.6,0,0.8-0.4,1.2-0.7c0.7-0.7,1.5-1.2,2.4-1.3c0.4,0,0.6-0.3,0.8-0.6
		c0.7-1,1.5-1.7,2.8-1.9c0.1,0,0.2-0.2,0.3-0.3c0.2-0.2,0.3-0.4,0.5-0.6c0.5-0.3,1-0.6,1.5-1c0.1-0.1,0.2-0.2,0.3-0.3
		c0.1-0.6,0.5-1.1,0.3-1.7c0-0.1,0-0.2,0.1-0.3c0.3-0.8,0.6-1.7,1-2.5c0-0.1,0.1-0.2,0.1-0.3c0.2-1,0.3-2.1,0.7-3.1c0,0,0-0.1,0-0.1
		c0.1-0.6,0.1-1.3,0.2-1.9c0.2-1.9,0.5-3.7,0.7-5.6c0-0.3,0-0.6,0-0.9c0-0.7-0.1-1.3-0.1-2c0-0.4,0-0.7,0-1.2
		c-0.2,0.2-0.4,0.3-0.4,0.4c-0.3,0.7-0.9,0.9-1.6,1.1c-0.4,0.1-0.8,0.4-1.1,0.8c-0.2,0.2-0.4,0.4-0.6,0.6c-0.2,0.1-0.4,0.2-0.6,0.4
		c-0.2,0.2-0.5,0.4-0.9,0.3c-0.4-0.1-0.7,0.1-1,0.3c-0.3,0.2-0.6,0.4-0.9,0.5c-0.6,0.3-1.2,0.6-1.7,0.9c0,0.7-0.2,0.8-0.8,0.8
		c-0.1,0-0.3,0-0.4,0c-0.5,0.1-0.6,0.1-0.6,0.6c0,0.6-0.2,1.2-0.3,1.7c-0.1,0.4-0.3,0.9-0.3,1.3c-0.1,0.6,0,1.2-0.4,1.8
		c-0.1,0.1,0,0.2-0.1,0.3c0,0.2-0.1,0.3-0.1,0.5c0,0.2-0.1,0.3-0.2,0.4c-0.1,0.3-0.2,0.6-0.2,0.9c-0.1,0.4-0.2,0.9-0.2,1.3
		c0.1,0.7,0.1,1.4-0.1,2c-0.1,0.5-0.2,1.1-0.2,1.6c0,0.5,0,1,0.1,1.5c0,1-0.4,1.9-0.4,2.9c0,0.1-0.1,0.1-0.1,0.2
		c-0.1,0.1-0.2,0.2-0.3,0.4c-0.3,0.5-0.4,1-0.4,1.6c0,0.5-0.4,1.2-0.8,1.5C70.1,127.1,69.9,127.3,70.2,127.6z M86.4,115.8
		c0.1-0.1,0.2-0.1,0.2-0.2c0.7-0.9,1.4-1.8,2-2.8c0.2-0.4,0.5-0.8,0.7-1.3c0.3-0.8,0.7-1.6,1.1-2.4c0.3-0.4,0.4-0.9,0.4-1.4
		c0-0.5,0.2-1,0.3-1.5c0.1-0.5,0.1-1,0.2-1.5c0.1-0.5,0.3-1,0.6-1.4c0.3-0.4,0.3-0.8,0.4-1.3c0.1-0.6,0.2-1.2,0.5-1.7
		c0.3-0.5,0.5-1,0.8-1.5c0.3-0.5,0.3-1.1,0-1.6c-0.2-0.4-0.2-0.8-0.1-1.3c0.1-0.5,0.2-0.9,0.3-1.4c0-0.1,0-0.3,0-0.5
		c-0.1-0.5-0.2-1-0.4-1.6c-0.1-0.4,0-0.8,0.1-1.2c0.1-0.6,0.2-1.2,0.3-1.8c0-0.2,0-0.4-0.3-0.5c-0.3,0.4-0.6,0.8-0.9,1.2
		c-0.2,0.2-0.3,0.4-0.5,0.7c-0.4,0.7-0.8,1.4-1.1,2.2c-0.1,0.3-0.2,0.6-0.6,0.8c-0.1,0-0.1,0.2-0.2,0.3c-0.3,0.6-0.4,1.3-1,1.7
		c-0.3,0.3-0.5,0.7-0.6,1.2c-0.1,0.6,0.1,1.1-0.1,1.7c-0.1,0.2-0.1,0.5-0.2,0.7c0,0,0.2,0.1,0.2,0.2c0,0.2-0.1,0.4-0.2,0.6
		c0.4,0.6,0.5,1.2,0.3,1.9c-0.2,0.8-0.2,1.6-0.3,2.4c0,0.6-0.1,1.2-0.2,1.8c0,0.2-0.1,0.3-0.1,0.5c0.1,0.6-0.1,1.1-0.2,1.7
		c-0.1,0.4-0.2,0.8-0.1,1.3c0,0.2-0.1,0.5-0.1,0.8c0,0.3,0,0.6,0,0.8c0.2,0.7,0.2,1.3-0.2,1.9c-0.2,0.3-0.4,0.5-0.6,0.8
		C86.8,114.7,86.6,115.2,86.4,115.8z M48,52c-0.2,0.3-0.5,0.3-0.9,0.2c-0.1,0-0.3,0-0.4,0.1c-0.4,0.2-0.8,0.5-0.9,1
		c-0.1,0.4-0.4,0.8-0.4,1.2c-0.1,0.7-0.4,1.4-0.4,2.2c0,0.2-0.1,0.4-0.2,0.6c-0.2,0.7-0.5,1.3-0.7,2c-0.2,1-0.3,2-0.5,3
		c0,0.3,0,0.5-0.1,0.7c-0.2,0.4-0.1,0.8,0,1.2c0.1,0.2,0.2,0.3,0.5,0.4c0.7,0.1,1.4,0.2,2.1,0.3c0.6,0.1,1.2,0.3,1.8,0.1
		c0.1-0.7,0.1-1.3,0.2-1.9c0.1-0.9,0.1-1.8,0.5-2.6c0.1-0.3,0.1-0.6,0.1-0.9c0.1-0.4,0.1-0.8,0.4-1.2c0.4-0.5,0.4-1,0.3-1.6
		c-0.1-0.3-0.1-0.6-0.1-0.9c0-0.8,0.1-1.6,0.2-2.4c0-0.2-0.1-0.5-0.2-0.6C48.7,52.4,48.4,52.2,48,52z M41.4,52
		c-0.2-0.1-0.4-0.2-0.6-0.3c-0.1-0.1-0.3-0.1-0.4-0.2c-0.2-0.3-0.6-0.5-0.9-0.6c-0.4-0.2-0.8-0.1-1.1,0c-0.4,0.2-0.7,0.4-0.7,0.9
		c0,0.1,0,0.2-0.1,0.3c-0.4,0.5-0.4,1-0.2,1.6c0.2,0.5,0.1,1.1-0.1,1.6c-0.1,0.2-0.2,0.4-0.3,0.5c-0.1,0.2-0.3,0.4-0.3,0.6
		c-0.1,0.8-0.2,1.6-0.2,2.4c0,0.7-0.3,1.2-0.5,1.8c-0.2,0.6-0.5,1.1-0.7,1.7c-0.1,0.3-0.1,0.7-0.1,1c1.5,0.5,2.9,0.8,4.3,0.4
		c0.1-0.1,0.2-0.2,0.2-0.4c0.1-0.6,0.2-1.2,0.3-1.8c0.1-0.7,0.1-1.5,0.4-2.2c0.3-0.9,0.5-1.9,0.6-2.9c0.1-1,0.2-2,0.4-3
		c0-0.2,0-0.4,0-0.5C41.5,52.6,41.5,52.3,41.4,52z"/>
	<path class="st0" d="M74.3,73.4c0.9,0.3,1.8,0.6,2.6,1.1c0.2,0.1,0.4,0.2,0.5,0.4c0.3,0.6,0.8,0.9,1.5,1c0.7,0.2,1.2,0.6,1.7,1.1
		c0.7,0.8,1.3,1.6,2.2,2.2c0.2,0.1,0.2,0.3,0.3,0.5c0.3,0.4,0.6,0.7,0.9,1.1c0.3,0.5,0.6,1,0.7,1.5c0.2,0.5,0.3,1,0.3,1.6
		c0,0.5-0.2,0.8-0.3,1.3c-0.1,0.5-0.1,1-0.1,1.5c0,0.8-0.1,1.6-0.2,2.4c0,0.1,0,0.1-0.1,0.2c-0.4,0.6-0.7,1.1-1.1,1.7
		c-0.1,0.2-0.3,0.4-0.3,0.7c0,0.1,0,0.1,0,0.2c-0.4,0.4-0.3,0.9-0.6,1.3c-0.1,0.1-0.1,0.2-0.2,0.4c-0.1,0.1-0.1,0.3-0.2,0.4
		c-0.3,0.3-0.6,0.6-0.8,1c-0.3,0.5-0.8,0.9-1.2,1.2c-0.5,0.4-1,0.8-1.5,1.2c-0.4,0.2-0.8,0.4-1.2,0.5c-0.2,0.1-0.4,0.2-0.6,0.4
		c-0.2,0.2-0.5,0.3-0.7,0.4c-0.4,0-0.7,0.2-0.9,0.4c-0.5,0.3-1,0.4-1.6,0.5c-0.1,0-0.2,0-0.4,0c-0.2,0-0.3,0.1-0.3,0.4
		c0,0.6-0.5,0.9-1.1,0.7c-0.3-0.1-0.6-0.1-0.9-0.2c-0.2,0-0.4-0.1-0.5-0.2c-0.4-0.2-0.8-0.5-1.2-0.7c-0.1-0.1-0.3-0.1-0.4-0.2
		c-0.3-0.1-0.5-0.1-0.7-0.4c0-0.1-0.1-0.1-0.2-0.2c-0.7-0.3-1.3-0.8-1.9-1.3c-0.7-0.6-1.3-1.3-2-1.9c-0.2-0.2-0.4-0.4-0.7-0.6
		c-0.4-0.3-0.7-0.6-0.9-1c-0.3-0.4-0.5-0.9-0.9-1.1c-0.7-0.4-0.9-1.1-1.2-1.8c-0.3-0.7-0.7-1.4-0.8-2.2c-0.1-0.5-0.1-1-0.1-1.5
		c0-0.7-0.1-1.4-0.1-2.1c0-0.3,0.1-0.7,0.2-1c0.2-0.6,0.4-1.2,0.5-1.8c0.2-0.8,0.3-1.6,0.7-2.3c0-0.1,0.1-0.2,0.1-0.2
		c0.5-0.2,0.6-0.8,0.9-1.1c0.1-0.1,0.1-0.2,0.1-0.2c0.6-0.4,0.7-1.1,1.2-1.5c0.5-0.4,1-0.8,1.5-1.2c0.7-0.6,1.6-1,2.4-1.4
		c0.7-0.4,1.4-0.6,2.1-0.9c1.2-0.5,2.4-0.4,3.6-0.3C73,73.1,73.6,73.2,74.3,73.4z M81.1,87.4c0.1-0.7,0.4-1.3,0.2-2.1
		c-0.1-0.4,0.1-0.9,0.2-1.3c0.1-0.3,0.2-0.7,0-1c-0.2-0.4-0.3-0.8-0.5-1.1c-0.1-0.2-0.3-0.4-0.4-0.6c-0.2-0.3-0.4-0.6-0.6-0.9
		c-0.2-0.3-0.4-0.5-0.7-0.7c-0.3-0.2-0.5-0.4-0.8-0.6c-0.2-0.2-0.3-0.4-0.5-0.5c-0.7-0.5-1.3-1.2-2.2-1.3c-0.1,0-0.1,0-0.2-0.1
		c-0.5-0.5-1-0.6-1.7-0.6c-0.1,0-0.2,0-0.3,0c-0.4-0.2-0.9-0.2-1.3-0.1c-0.4,0.1-0.9,0.2-1.3,0.1c-0.6-0.1-1.1,0.2-1.6,0.4
		c-0.2,0.1-0.3,0.1-0.5,0.1c-0.5,0-1.1,0.2-1.4,0.5c-0.2,0.1-0.4,0.3-0.6,0.4c-0.4,0.2-0.7,0.5-0.9,1c-0.1,0.2-0.1,0.4-0.3,0.6
		c-0.4,0.4-0.9,0.8-1.3,1.2c-0.3,0.3-0.6,0.6-0.7,1.2c0,0.6-0.4,1.2-0.4,1.8c0,0,0,0.1-0.1,0.1c-0.3,0.7-0.7,1.3-0.7,2.1
		c0,0.4,0,0.9,0.1,1.3c0,0.2,0,0.3,0.1,0.5c0,0.4,0,0.8,0.1,1.1c0.1,0.4,0.3,0.8,0.5,1.2c0.2,0.4,0.5,0.8,0.8,1.2
		c0.2,0.3,0.6,0.6,0.8,0.9c0.8,0.9,1.7,1.7,2.7,2.2c0.1,0,0.1,0.1,0.2,0.1c0.6,0.3,1.1,0.7,1.6,1.1c0.5,0.4,1,0.2,1.5,0
		c0,0,0,0,0.1,0c0.5-0.2,0.9-0.3,1.4,0c0.1,0.1,0.4,0.1,0.5,0c0.8-0.4,1.7-0.9,2.5-1.4c0.4-0.2,0.7-0.4,1.1-0.6
		c0.6-0.2,1.2-0.5,1.7-1c0.2-0.2,0.4-0.4,0.6-0.5c0.3-0.3,0.6-0.5,0.7-1c0.1-0.6,0.4-1.2,0.7-1.8C80.5,88.6,80.8,88,81.1,87.4z"/>
	<path class="st0" d="M38.6,72.5c1.2-0.8,1.3-0.7,1.6-0.4c0.1-0.1,0.2-0.2,0.3-0.4c0.3,0.1,0.6,0.3,0.6,0.7c0.1,0.4,0.4,0.6,0.4,1
		c0,0.1,0,0.3,0,0.4c-0.4,0.9-0.1,1.8,0.2,2.7c0.3,0.8,0.5,1.5,0.7,2.3c0.1,0.2,0.2,0.5,0.3,0.7c0.3,0.7,0.7,1.3,1,2
		c0.7-0.4,1.2-0.8,1.8-1.4c0.5-0.5,0.9-1,1.3-1.4c0.4-0.4,0.9-0.8,1.3-1.2c0.8-0.7,1.6-1.5,2.4-2.2c0.4-0.3,0.7-0.7,1-1.1
		c0.2-0.3,0.6-0.5,0.8-0.8c0.2-0.3,0.6-0.5,0.8-0.8c0.4-0.6,1-0.8,1.6-0.9c0.4,0.3,0.8,0.6,1.3,0.8c0.7,0.4,0.9,1.3,0.5,2
		c-0.1,0.3,0,0.7-0.2,0.9c-0.2,0.3-0.4,0.5-0.5,0.8c-0.2,0.5-0.3,1.1-0.6,1.5c-0.1,0.1-0.1,0.2-0.2,0.3c-0.8,0.5-1.6,1.2-2.5,1.5
		c-0.8,0.2-1.5,0.6-2,1.2c-0.1,0.1-0.1,0.1-0.2,0.1c-0.4,0-0.7,0.4-1,0.6c-0.1,0.1-0.3,0.2-0.4,0.3c-0.5,0.1-0.7,0.5-1,0.9
		c0,0.1-0.1,0.1-0.1,0.2c-0.7,0.5-1.5,1-2.2,1.5c0,0-0.1,0.1-0.1,0.2c0.1,0.2,0.3,0.5,0.4,0.8c0.3,0.7,0.7,1.4,1,2.1
		c0.1,0.3,0.2,0.7,0.5,0.9c0.2,0.1,0.3,0.4,0.3,0.6c0.3,0.7,0.6,1.5,0.9,2.2c0.2,0.6,0.6,1.2,1.2,1.6c0.3,0.2,0.5,0.5,0.7,0.8
		c0.3,0.4,0.5,0.8,0.8,1.1c0.3,0.3,0.5,0.6,0.7,1c0.3,0.5,0.8,1,1.1,1.5c0.3,0.5,0.7,1,1,1.5c0.2,0.3,0.4,0.5,0.6,0.7
		c0.4,0.3,0.7,0.7,0.9,1.2c0.2,0.5-0.1,0.9-0.7,1c-0.6,0.1-1.2,0.1-1.7-0.2c-0.2-0.1-0.4-0.3-0.4-0.5c-0.1-0.4-0.3-0.8-0.6-1.1
		c-0.3-0.3-0.6-0.6-0.9-0.7c-0.5-0.3-0.9-0.7-0.9-1.3c0-0.2-0.1-0.4-0.3-0.5c-0.3-0.4-0.5-0.9-1.1-1.1c-0.1,0-0.2-0.2-0.3-0.3
		c-0.2-0.2-0.3-0.4-0.5-0.6c-0.1-0.1-0.2-0.1-0.2-0.2c-0.2-0.7-0.9-1.1-1.2-1.8c-0.1-0.2-0.3-0.3-0.5-0.4c-0.3-0.3-0.5-0.6-0.8-0.9
		c-0.1-0.1-0.1-0.2-0.2-0.3c-0.4-0.4-0.7-0.8-1-1.3c-0.5-0.7-1-1.4-1.9-1.7c-0.1,0-0.3,0-0.4,0.1c-0.2,0.2-0.3,0.5-0.4,0.7
		c-0.1,0.3-0.3,0.5-0.6,0.6c-0.4,0.2-0.4,0.6-0.5,0.9c-0.1,0.3-0.3,0.5-0.6,0.6c-0.5,0.2-0.9,0.6-1.1,1.1c-0.3,0.6-0.5,1.3-1.1,1.7
		c-0.2,0.2-0.4,0.4-0.6,0.6c-0.3,0.3-0.5,0.4-0.9,0.3c-0.4-0.1-0.8-0.3-1.1-0.5c-0.4-0.3-0.5-0.7-0.3-1.2c0.3-0.6,0.7-1.3,1.1-1.9
		c0.2-0.3,0.5-0.6,0.8-1c0.4-0.5,0.7-1,1.1-1.5c0.5-0.6,1-1.2,1.6-1.9c0.3-0.3,0.5-0.6,0.8-0.9c0.3-0.4,0.3-0.5-0.1-0.7
		c-0.4-0.3-0.5-0.7-0.6-1c-0.1-0.3-0.1-0.6-0.3-0.8c0-0.1-0.1-0.2-0.1-0.3c-0.2-0.8-0.6-1.4-1.1-2.1c-0.1-0.1-0.2-0.2-0.2-0.3
		c-0.1-0.1-0.3-0.3-0.3-0.4c-0.1-0.5-0.3-1-0.4-1.5c-0.1-0.7-0.2-1.5-0.3-2.2c-0.1-0.4-0.1-0.9,0-1.3c0-0.2,0.3-0.5,0.5-0.6
		c0.2-0.2,0.4-0.3,0.5-0.6c0.2-0.3,0.4-0.6,0.7-0.8C38.4,73.2,38.8,72.9,38.6,72.5z"/>
	<path class="st0" d="M76.1,82.5c0.4,0.2,0.6,0.3,0.8,0.7c0.2,0.3,0.5,0.6,0.7,0.9c0.3,0.4,0.4,0.8,0.2,1.2c-0.2,0.5-0.5,1-1.1,1.1
		c-0.3,0.1-0.6,0.1-0.8-0.1c-0.3-0.4-0.7-0.5-1.1-0.6c-0.3-0.1-0.5-0.2-0.6-0.5c-0.1-0.4-0.3-0.9-0.4-1.3c-0.1-0.5,0.2-0.9,0.6-1.3
		c0.2-0.1,0.5-0.1,0.7-0.1C75.4,82.5,75.8,82.5,76.1,82.5z"/>
</g>
</svg>
